<?xml version="1.0" encoding="UTF-8" standalone="no"?>
<!-- Created with Inkscape (http://www.inkscape.org/) -->

<svg
   xmlns:dc="http://purl.org/dc/elements/1.1/"
   xmlns:cc="http://creativecommons.org/ns#"
   xmlns:rdf="http://www.w3.org/1999/02/22-rdf-syntax-ns#"
   xmlns:svg="http://www.w3.org/2000/svg"
   xmlns="http://www.w3.org/2000/svg"
   xmlns:xlink="http://www.w3.org/1999/xlink"
   xmlns:sodipodi="http://sodipodi.sourceforge.net/DTD/sodipodi-0.dtd"
   xmlns:inkscape="http://www.inkscape.org/namespaces/inkscape"
   width="294.83978mm"
   height="233.12318mm"
   viewBox="0 0 294.83978 233.12318"
   version="1.1"
   id="svg8"
   inkscape:version="0.92pre3 15195"
   sodipodi:docname="landscape gunungs.svg">
  <defs
     id="defs2">
    <linearGradient
       id="linearGradient5431"
       inkscape:collect="always">
      <stop
         id="stop5427"
         offset="0"
         style="stop-color:#e7ac7a;stop-opacity:1;" />
      <stop
         id="stop5429"
         offset="1"
         style="stop-color:#ffffff;stop-opacity:1" />
    </linearGradient>
    <linearGradient
       inkscape:collect="always"
       id="linearGradient5389">
      <stop
         style="stop-color:#ffffff;stop-opacity:1;"
         offset="0"
         id="stop5385" />
      <stop
         style="stop-color:#ffffff;stop-opacity:0;"
         offset="1"
         id="stop5387" />
    </linearGradient>
    <linearGradient
       inkscape:collect="always"
       id="linearGradient5381">
      <stop
         style="stop-color:#ffffff;stop-opacity:1;"
         offset="0"
         id="stop5377" />
      <stop
         style="stop-color:#ffffff;stop-opacity:0;"
         offset="1"
         id="stop5379" />
    </linearGradient>
    <linearGradient
       inkscape:collect="always"
       id="linearGradient5373">
      <stop
         style="stop-color:#ffffff;stop-opacity:1;"
         offset="0"
         id="stop5369" />
      <stop
         style="stop-color:#ffffff;stop-opacity:0;"
         offset="1"
         id="stop5371" />
    </linearGradient>
    <linearGradient
       inkscape:collect="always"
       id="linearGradient5365">
      <stop
         style="stop-color:#ffffff;stop-opacity:1;"
         offset="0"
         id="stop5361" />
      <stop
         style="stop-color:#ffffff;stop-opacity:0;"
         offset="1"
         id="stop5363" />
    </linearGradient>
    <linearGradient
       inkscape:collect="always"
       id="linearGradient5357">
      <stop
         style="stop-color:#ffffff;stop-opacity:1;"
         offset="0"
         id="stop5353" />
      <stop
         style="stop-color:#ffffff;stop-opacity:0;"
         offset="1"
         id="stop5355" />
    </linearGradient>
    <linearGradient
       inkscape:collect="always"
       id="linearGradient5349">
      <stop
         style="stop-color:#ffffff;stop-opacity:1;"
         offset="0"
         id="stop5345" />
      <stop
         style="stop-color:#ffffff;stop-opacity:0;"
         offset="1"
         id="stop5347" />
    </linearGradient>
    <linearGradient
       inkscape:collect="always"
       id="linearGradient5341">
      <stop
         style="stop-color:#ffffff;stop-opacity:1;"
         offset="0"
         id="stop5337" />
      <stop
         style="stop-color:#ffffff;stop-opacity:0;"
         offset="1"
         id="stop5339" />
    </linearGradient>
    <linearGradient
       inkscape:collect="always"
       id="linearGradient5073">
      <stop
         style="stop-color:#d35e5e;stop-opacity:1"
         offset="0"
         id="stop5069" />
      <stop
         style="stop-color:#ffff8e;stop-opacity:1"
         offset="1"
         id="stop5071" />
    </linearGradient>
    <linearGradient
       inkscape:collect="always"
       id="linearGradient4877">
      <stop
         style="stop-color:#091f1b;stop-opacity:1"
         offset="0"
         id="stop4873" />
      <stop
         style="stop-color:#113c34;stop-opacity:0;"
         offset="1"
         id="stop4875" />
    </linearGradient>
    <linearGradient
       inkscape:collect="always"
       xlink:href="#linearGradient4877"
       id="linearGradient4879"
       x1="-231.03615"
       y1="2408.2031"
       x2="-274.78958"
       y2="1506.2567"
       gradientUnits="userSpaceOnUse" />
    <linearGradient
       inkscape:collect="always"
       xlink:href="#linearGradient5073"
       id="linearGradient5075"
       x1="-74.683525"
       y1="-79.435997"
       x2="-82.502464"
       y2="543.30157"
       gradientUnits="userSpaceOnUse"
       gradientTransform="matrix(1.9120287,0,0,1.9120287,166.73014,-160.69412)" />
    <linearGradient
       inkscape:collect="always"
       xlink:href="#linearGradient5341"
       id="linearGradient5343"
       x1="-115.40831"
       y1="-198.00877"
       x2="-118.67306"
       y2="346.27695"
       gradientUnits="userSpaceOnUse" />
    <linearGradient
       inkscape:collect="always"
       xlink:href="#linearGradient5349"
       id="linearGradient5351"
       x1="-95.753586"
       y1="-119.38972"
       x2="-89.946899"
       y2="452.11029"
       gradientUnits="userSpaceOnUse" />
    <linearGradient
       inkscape:collect="always"
       xlink:href="#linearGradient5357"
       id="linearGradient5359"
       x1="-88.194023"
       y1="-61.93734"
       x2="-97.506416"
       y2="303.9436"
       gradientUnits="userSpaceOnUse" />
    <linearGradient
       inkscape:collect="always"
       xlink:href="#linearGradient5365"
       id="linearGradient5367"
       x1="-114.48039"
       y1="-0.434342"
       x2="-116.76062"
       y2="328.84171"
       gradientUnits="userSpaceOnUse" />
    <linearGradient
       inkscape:collect="always"
       xlink:href="#linearGradient5373"
       id="linearGradient5375"
       x1="-287.76547"
       y1="228.34837"
       x2="59.731674"
       y2="228.34837"
       gradientUnits="userSpaceOnUse"
       gradientTransform="translate(342.36526,-114.33148)" />
    <linearGradient
       inkscape:collect="always"
       xlink:href="#linearGradient5381"
       id="linearGradient5383"
       x1="-242.40831"
       y1="228.34837"
       x2="14.374527"
       y2="228.34837"
       gradientUnits="userSpaceOnUse"
       gradientTransform="translate(342.36526,-114.33148)" />
    <linearGradient
       inkscape:collect="always"
       xlink:href="#linearGradient5389"
       id="linearGradient5391"
       x1="-201.58688"
       y1="228.34837"
       x2="-26.446907"
       y2="228.34837"
       gradientUnits="userSpaceOnUse"
       gradientTransform="matrix(1.0863255,0,0,1.0863255,352.20782,-134.04377)" />
    <linearGradient
       inkscape:collect="always"
       xlink:href="#linearGradient5431"
       id="linearGradient5425"
       x1="268.06958"
       y1="263.12753"
       x2="-19.267492"
       y2="226.77888"
       gradientUnits="userSpaceOnUse" />
    <linearGradient
       inkscape:collect="always"
       xlink:href="#linearGradient5431"
       id="linearGradient5439"
       x1="310.83273"
       y1="53.588192"
       x2="164.61397"
       y2="94.213165"
       gradientUnits="userSpaceOnUse" />
    <linearGradient
       inkscape:collect="always"
       xlink:href="#linearGradient5341"
       id="linearGradient5443"
       gradientUnits="userSpaceOnUse"
       x1="-115.40831"
       y1="-198.00877"
       x2="-118.67306"
       y2="346.27695"
       gradientTransform="matrix(1.2305868,0,0,1.2305868,26.290794,-52.654128)" />
    <linearGradient
       inkscape:collect="always"
       xlink:href="#linearGradient5431"
       id="linearGradient5597"
       x1="-535.26764"
       y1="165.12079"
       x2="-337.16525"
       y2="164.32954"
       gradientUnits="userSpaceOnUse" />
    <clipPath
       clipPathUnits="userSpaceOnUse"
       id="clipPath5669">
      <circle
         style="opacity:0.58600003;fill:#280b0b;fill-opacity:1;stroke:none;stroke-width:8.18395424;stroke-miterlimit:4;stroke-dasharray:none;stroke-opacity:1;paint-order:markers stroke fill"
         id="circle5671"
         cx="-92.850212"
         cy="192.06264"
         r="454.96286" />
    </clipPath>
    <linearGradient
       inkscape:collect="always"
       xlink:href="#linearGradient5431"
       id="linearGradient5675"
       gradientUnits="userSpaceOnUse"
       gradientTransform="matrix(0.33260091,0,0,0.33260091,152.33146,41.461408)"
       x1="-535.26764"
       y1="165.12079"
       x2="-337.16525"
       y2="164.32954" />
    <linearGradient
       inkscape:collect="always"
       xlink:href="#linearGradient5431"
       id="linearGradient5679"
       gradientUnits="userSpaceOnUse"
       gradientTransform="matrix(0.31294062,0,0,0.31294062,136.81976,102.87407)"
       x1="-535.26764"
       y1="165.12079"
       x2="-337.16525"
       y2="164.32954" />
    <linearGradient
       inkscape:collect="always"
       xlink:href="#linearGradient5431"
       id="linearGradient5683"
       gradientUnits="userSpaceOnUse"
       gradientTransform="matrix(-0.24412965,0,0,0.24412965,106.2474,88.206035)"
       x1="-535.26764"
       y1="165.12079"
       x2="-337.16525"
       y2="164.32954" />
    <linearGradient
       inkscape:collect="always"
       xlink:href="#linearGradient5073"
       id="linearGradient5939"
       gradientUnits="userSpaceOnUse"
       gradientTransform="matrix(1.9120287,0,0,1.9120287,166.73014,-160.69412)"
       x1="-74.683525"
       y1="-79.435997"
       x2="-82.502464"
       y2="543.30157" />
    <linearGradient
       inkscape:collect="always"
       xlink:href="#linearGradient5431"
       id="linearGradient5941"
       gradientUnits="userSpaceOnUse"
       x1="310.83273"
       y1="53.588192"
       x2="164.61397"
       y2="94.213165" />
    <linearGradient
       inkscape:collect="always"
       xlink:href="#linearGradient5431"
       id="linearGradient5943"
       gradientUnits="userSpaceOnUse"
       x1="-535.26764"
       y1="165.12079"
       x2="-337.16525"
       y2="164.32954" />
    <linearGradient
       inkscape:collect="always"
       xlink:href="#linearGradient5431"
       id="linearGradient5945"
       gradientUnits="userSpaceOnUse"
       x1="268.06958"
       y1="263.12753"
       x2="-19.267492"
       y2="226.77888" />
    <linearGradient
       inkscape:collect="always"
       xlink:href="#linearGradient5389"
       id="linearGradient5947"
       gradientUnits="userSpaceOnUse"
       gradientTransform="matrix(1.0863255,0,0,1.0863255,352.20782,-134.04377)"
       x1="-201.58688"
       y1="228.34837"
       x2="-26.446907"
       y2="228.34837" />
    <linearGradient
       inkscape:collect="always"
       xlink:href="#linearGradient5381"
       id="linearGradient5949"
       gradientUnits="userSpaceOnUse"
       gradientTransform="translate(342.36526,-114.33148)"
       x1="-242.40831"
       y1="228.34837"
       x2="14.374527"
       y2="228.34837" />
    <linearGradient
       inkscape:collect="always"
       xlink:href="#linearGradient5373"
       id="linearGradient5951"
       gradientUnits="userSpaceOnUse"
       gradientTransform="translate(342.36526,-114.33148)"
       x1="-287.76547"
       y1="228.34837"
       x2="59.731674"
       y2="228.34837" />
    <linearGradient
       inkscape:collect="always"
       xlink:href="#linearGradient5365"
       id="linearGradient5953"
       gradientUnits="userSpaceOnUse"
       x1="-114.48039"
       y1="-0.434342"
       x2="-116.76062"
       y2="328.84171" />
    <linearGradient
       inkscape:collect="always"
       xlink:href="#linearGradient5357"
       id="linearGradient5955"
       gradientUnits="userSpaceOnUse"
       x1="-88.194023"
       y1="-61.93734"
       x2="-97.506416"
       y2="303.9436" />
    <linearGradient
       inkscape:collect="always"
       xlink:href="#linearGradient5349"
       id="linearGradient5957"
       gradientUnits="userSpaceOnUse"
       x1="-95.753586"
       y1="-119.38972"
       x2="-89.946899"
       y2="452.11029" />
    <linearGradient
       inkscape:collect="always"
       xlink:href="#linearGradient5341"
       id="linearGradient5959"
       gradientUnits="userSpaceOnUse"
       x1="-115.40831"
       y1="-198.00877"
       x2="-118.67306"
       y2="346.27695" />
  </defs>
  <sodipodi:namedview
     id="base"
     pagecolor="#ffffff"
     bordercolor="#666666"
     borderopacity="1.0"
     inkscape:pageopacity="0.0"
     inkscape:pageshadow="2"
     inkscape:zoom="0.35"
     inkscape:cx="392.70799"
     inkscape:cy="323.3785"
     inkscape:document-units="mm"
     inkscape:current-layer="layer1"
     showgrid="false"
     inkscape:snap-global="false"
     inkscape:window-width="1366"
     inkscape:window-height="746"
     inkscape:window-x="-8"
     inkscape:window-y="-8"
     inkscape:window-maximized="1"
     fit-margin-top="0"
     fit-margin-left="0"
     fit-margin-right="0"
     fit-margin-bottom="0" />
  <metadata
     id="metadata5">
    <rdf:RDF>
      <cc:Work
         rdf:about="">
        <dc:format>image/svg+xml</dc:format>
        <dc:type
           rdf:resource="http://purl.org/dc/dcmitype/StillImage" />
        <dc:title></dc:title>
      </cc:Work>
    </rdf:RDF>
  </metadata>
  <g
     inkscape:label="Layer 1"
     inkscape:groupmode="layer"
     id="layer1"
     transform="translate(46.218967,-39.066154)">
    <rect
       style="opacity:1;fill:#141526;fill-opacity:1;stroke:none;stroke-width:0.35519475;stroke-miterlimit:4;stroke-dasharray:none;stroke-opacity:1;paint-order:markers stroke fill"
       id="rect5813"
       width="294.83978"
       height="233.12318"
       x="-46.218967"
       y="39.066154"
       inkscape:export-xdpi="342.89999"
       inkscape:export-ydpi="342.89999" />
    <g
       id="g5661"
       clip-path="url(#clipPath5669)"
       transform="matrix(0.24747733,0,0,0.24747733,125.89563,109.96995)">
      <rect
         y="-426.81769"
         x="-1321.3806"
         height="1206.0237"
         width="2277.1365"
         id="rect4532"
         style="opacity:1;fill:url(#linearGradient5075);fill-opacity:1;stroke:none;stroke-width:3.82405734;stroke-miterlimit:4;stroke-dasharray:none;stroke-opacity:1;paint-order:markers stroke fill" />
      <path
         inkscape:connector-curvature="0"
         id="path4926"
         d="m -523.11905,333.2857 155.72621,-51.40476 84.66666,-18.14285 39.30952,12.09524 84.66666,13.60715 98.27381,25.70237 74.083333,1.51191 143.630947,-30.23809 105.83333,27.21427 89.20239,31.75 102.80952,34.77382 1.51191,90.71427 L -492.88093,442.14285 -571.49999,424 l -240.39285,-7.55952 108.85712,-25.70239 95.25,-37.79761 z"
         style="fill:#b8404e;fill-opacity:1;stroke:none;stroke-width:0.26458332px;stroke-linecap:butt;stroke-linejoin:miter;stroke-opacity:1" />
      <path
         inkscape:connector-curvature="0"
         id="path4601"
         d="m 81.642856,405.85715 86.178574,-15.11906 34.77381,-22.67857 101.29761,-15.11904 122.4643,-39.30954 25.70236,54.42858 3.02382,98.27381 -380.999998,-22.67857 z"
         style="fill:#963b4a;fill-opacity:1;stroke:none;stroke-width:0.26458332px;stroke-linecap:butt;stroke-linejoin:miter;stroke-opacity:1" />
      <path
         id="path4595"
         d="m -562.33517,211.47391 -55.59197,25.65786 -211.67752,57.73034 -4.27622,305.75599 532.40109,12.8292 335.690105,6.41408 -19.24327,-117.59851 -29.93409,-51.31572 -151.809335,-51.31573 -58.36595,-20.12643 -1.23506,-7.93697 -1.70429,6.92359 -0.70125,-0.24183 -8.73332,-0.64698 -1.42265,-11.38021 -0.9679,11.20294 -24.20679,-1.79266 -2.08669,-8.60825 c 0,0 0.0591,4.2553 0.11679,8.46201 l -3.31504,-0.24545 -2.41433,-17.30386 -0.95808,17.05425 -4.07935,-0.30231 -2.17918,-11.67371 -0.14727,11.50112 -7.336,-0.54311 -55.59247,-40.62492 -4.89995,-3.40288 -0.73279,-7.62125 -0.80254,6.55516 -4.37594,-3.03858 -2.38125,-18.25781 -1.23042,15.74943 -7.60677,-5.28235 -0.99013,-11.2231 -0.96996,9.86192 -3.56568,-2.47631 v -18.72496 l -3.16878,16.52457 -46.24938,-32.11795 -36.3487,-14.96703 -49.17736,-53.45359 z"
         style="fill:#963b4a;fill-opacity:1;stroke:none;stroke-width:0.26458332px;stroke-linecap:butt;stroke-linejoin:miter;stroke-opacity:1"
         inkscape:connector-curvature="0" />
      <path
         id="path5165"
         d="m -562.33517,211.47391 -0.0967,0.0444 54.43183,8.37469 15.11898,10.58333 24.19077,30.23794 18.14256,18.14308 v -9.0718 l 27.21435,15.11898 42.33333,28.72642 66.52358,55.94025 30.23846,12.09537 110.36899,21.16667 -5.71335,-7.61762 -45.56001,-15.71067 -1.23506,-7.93697 -1.70429,6.92359 -0.70125,-0.24183 -8.73332,-0.64698 -1.42265,-11.38021 -0.9679,11.20294 -24.20679,-1.79266 -2.08669,-8.60825 c 0,0 0.0591,4.2553 0.11679,8.46201 l -3.31504,-0.24545 -2.41433,-17.30386 -0.95808,17.05425 -4.07935,-0.30231 -2.17918,-11.67371 -0.14727,11.50112 -7.336,-0.54311 -55.59247,-40.62492 -4.89995,-3.40288 -0.73279,-7.62125 -0.80254,6.55516 -4.37594,-3.03858 -2.38125,-18.25781 -1.23042,15.74943 -7.60677,-5.28235 -0.99013,-11.2231 -0.96996,9.86192 -3.56568,-2.47631 v -18.72496 l -3.16878,16.52457 -46.24938,-32.11795 -36.3487,-14.96703 -49.17736,-53.45359 z"
         style="opacity:0.031;fill:#ffffff;fill-opacity:1;stroke:none;stroke-width:0.26458332px;stroke-linecap:butt;stroke-linejoin:miter;stroke-opacity:1"
         inkscape:connector-curvature="0" />
      <path
         id="path4528"
         d="m 108.41457,356.38443 -3.67058,32.86623 -4.09277,-1.04799 -4.798675,-27.00766 -2.842202,25.05067 -39.815658,-10.19681 -39.582596,6.98511 -1.584916,-10.66395 -1.226282,11.16004 -3.766695,0.66456 -2.7579714,-20.9119 -1.7017048,21.69893 -3.7475748,0.66146 -2.5688354,-16.48013 -0.6082315,17.04083 -19.5626301,3.45197 -60.475895,21.16666 -105.833333,1.51207 -61.98846,16.63102 -23.59908,14.74949 -3.75428,-18.9601 -1.52188,22.25808 -3.3967,2.12288 -2.56521,-38.01163 -4.64675,42.51936 -1.78593,1.1162 -3.45612,-17.17619 -0.10232,19.39983 -2.29081,1.43198 -4.55581,-29.38426 -2.16628,33.93848 -4.89788,3.37759 -3.3595,-25.55608 c 0,0 -0.90001,20.92828 -1.3689,28.81736 l -72.60384,50.07136 873.88101,16.63105 -9.07126,-83.15515 -107.3454,-21.16667 -111.88101,-1.51151 -80.13103,-22.67874 -24.22281,-6.20376 -3.90829,-17.41496 -1.87637,15.93393 -5.48545,-1.4051 -3.86385,-16.93384 -1.8278,15.47657 -3.02824,-0.77565 -5.5671,-35.28105 -3.67574,32.91427 -2.45153,-0.62788 -4.29638,-21.59559 -2.29754,19.9068 -0.69246,-0.17724 z"
         style="opacity:1;fill:#783545;fill-opacity:1;stroke:none;stroke-width:0.26458332px;stroke-linecap:butt;stroke-linejoin:miter;stroke-opacity:1"
         inkscape:connector-curvature="0" />
      <path
         inkscape:connector-curvature="0"
         id="path4526"
         d="m -542.80848,338.17528 -10.24692,60.54926 -4.0504,-0.85265 -3.62664,-34.0465 -5.78054,32.06625 -4.43796,-0.93429 -3.14503,-29.52845 -5.34024,29.62301 -8.6093,0.53795 -3.15587,-29.62661 -5.4374,30.16403 -24.2874,1.51826 -40.8213,-24.19077 -92.22639,-16.63102 -3.0236,149.67873 h 122.46437 l 344.71382,-10.58334 -63.49999,-19.65462 -43.84488,-25.70231 -51.40512,-12.09538 -54.42821,-25.70231 -19.9078,-5.89886 -3.61686,-33.95297 -5.62702,31.21411 -4.18788,-1.24074 z"
         style="opacity:1;fill:#783545;fill-opacity:1;stroke:none;stroke-width:0.26458332px;stroke-linecap:butt;stroke-linejoin:miter;stroke-opacity:1" />
      <circle
         r="66.40332"
         cy="228.34837"
         cx="-114.01689"
         id="path4534"
         style="opacity:1;fill:#ffffff;fill-opacity:1;stroke:none;stroke-width:1.19447494;stroke-miterlimit:4;stroke-dasharray:none;stroke-opacity:1;paint-order:markers stroke fill" />
      <path
         sodipodi:nodetypes="ccccccccccccccccccccccccccccccccccccccccccccccccccccccccccccccccccccccccccccccccccccccccccccccccccccccccccccccccccccccccccccccccccccccccccccccccccccccccccccccccccccccccccccccsccccccccccccccccccccccccccccccccccccccccccccccccccccccccccccccccccccccccccccccccccccccccccccccccccccccccccccccccccccccccccccccccccccccccccccccccccccccc"
         inkscape:connector-curvature="0"
         id="path4524"
         d="m -96.803391,227.46983 c -2.863321,10.78715 -20.292829,31.86152 -27.502719,5.95571 -0.48398,11.78613 -4.13973,19.79012 -12.1269,22.63014 l 6.06371,1.7322 2.38177,2.16576 0.65008,8.98706 -6.8218,0.10851 -0.32505,4.98057 3.68143,0.21653 v 1.6242 l 1.19115,-0.10853 2.27427,2.38228 0.31006,5.78932 -0.87333,-1.74099 0.76791,2.25568 -0.20774,0.41495 -0.49092,-0.65577 0.3638,0.91054 -0.0651,0.12972 -0.0775,0.0233 -1.57148,-2.25517 1.27124,2.56058 -0.0925,0.15865 -1.26194,-1.00873 1.01751,1.43039 -0.0506,0.0863 -1.15342,-0.80357 0.92294,1.20095 -26.44541,45.54503 -1.31155,0.96171 -0.007,-0.26202 -0.18087,0.4 -0.75241,0.55136 0.0481,-4.01214 -0.67024,4.46897 -0.27286,0.2 -0.33073,-1.98025 -0.23254,2.39313 -0.078,0.0574 -0.65267,-4.92786 -0.078,4.85346 -1.1896,-2.66652 0.42633,2.99622 -1.15393,-2.188 0.6165,3.42202 -1.83038,1.34255 0.0553,-4.65863 -0.77774,5.18832 -0.80615,0.59119 -0.30127,-1.80094 -0.21136,2.17712 -0.40101,0.29353 -0.81287,-6.13606 -0.11007,6.81302 -0.12816,0.0941 -1.6371,-3.67162 0.62735,4.41214 -0.006,0.005 -1.69808,-3.22048 0.71106,3.94446 -9.53223,6.98976 -35.65932,137.96883 -24.19025,12.09538 -48.38102,-4.53562 -44.1968,-20.62512 0.39222,-0.80097 -0.78753,0.6165 -0.11732,-0.0548 1.26971,-2.35747 -1.60766,2.19985 -0.12247,-0.0573 0.3643,-1.1121 -0.65214,0.99738 -0.0894,-0.0244 0.91107,-2.49237 -1.29813,2.38694 -0.031,-0.009 0.10025,-1.60198 -0.5271,1.48572 -0.0558,-0.0151 -0.003,-1.25265 -0.36174,1.15293 -0.63561,-0.17312 0.78497,-1.60354 -1.72189,1.34774 -0.12866,-0.0351 2.54404,-4.72323 -3.30059,4.51704 -0.12195,-0.0331 0.82786,-2.52751 -1.52755,2.33682 -0.0532,-0.0151 1.90325,-5.20692 -2.5337,4.65709 0.19947,-3.18275 -1.10535,3.11558 -0.008,-2.70164 -0.83767,2.66959 -0.88884,-0.24235 0.16174,-0.33023 -0.35449,0.27752 -0.34623,-0.0946 1.06555,-1.97815 -1.38234,1.89187 -0.24392,-0.0667 0.26046,-0.79529 -0.48059,0.73536 -0.15814,-0.0429 0.80875,-2.21123 -1.15239,2.1172 -0.15812,-0.0429 0.0811,-1.29812 -0.42685,1.20353 -0.15658,-0.0424 -0.003,-0.94361 -0.27234,0.86868 -1.39578,-0.38086 -0.11369,-2.31458 c 4.58903,0.17317 5.34712,-2.95267 5.53402,-4.98057 -2.15056,-11.19645 -4.86929,-20.40406 -6.36394,-33.89614 -1.86592,13.00858 -5.45256,22.57631 -8.3013,33.61915 -0.86554,5.40067 3.50001,4.79856 5.6725,5.81102 l -0.0145,0.78237 -13.38265,-3.6494 0.49353,-0.85108 -1.03923,0.70225 -0.22064,-0.0605 1.92648,-3.04374 -2.44998,2.90112 -0.1509,-0.0414 0.64855,-1.59216 -1.11207,1.46556 -0.0739,-0.0201 1.56165,-3.49073 -2.04483,3.20032 0.30282,-2.26446 -0.94671,2.17143 0.13023,-1.93166 -0.72501,1.84589 -1.41335,-0.3855 -0.16809,-5.94228 c 8.86528,0.33451 11.65267,-5.70402 10.50181,-10.94457 -4.15451,-21.62963 -9.40689,-39.41632 -12.29434,-65.48075 -3.60463,25.13037 -10.53288,43.6135 -16.03624,64.94643 -1.672,10.43321 6.76111,9.26925 10.95801,11.22516 l -0.0636,3.43286 -0.37309,0.72398 -0.15451,-0.0424 0.17208,-2.69854 -0.52916,2.60138 -0.20672,-0.0563 -0.1111,-0.97305 -0.13592,0.90588 -0.17415,-0.0476 -0.19015,-2.3735 -0.15505,2.27894 -0.31779,-0.0863 -0.35502,-0.92138 0.076,0.84489 -0.41187,-0.11213 -0.12557,-0.27077 0.031,0.24495 -19.2753,-5.25653 -0.10594,-2.15337 c 8.31501,0.31377 9.68865,-5.34982 10.02729,-9.02425 -3.89665,-20.28714 -8.82285,-36.97025 -11.53107,-61.41693 -3.38093,23.57056 -9.8792,40.90633 -15.04096,60.91515 -0.68609,4.28122 0.44199,6.48086 2.25775,7.75404 l -5.1289,-1.39888 -40.82126,7.55923 -31.75,-9.07127 -58.96436,12.09537 -9.07129,-9.07126 -42.33383,16.63049 c 0,0 -66.52369,3.02411 -72.5713,3.02411 -6.0476,0 -7.55922,96.76206 -7.55922,96.76206 L 367.2591,580.52273 311.31885,553.30835 217.58038,532.14169 95.590409,485.16524 l -35.918737,-4.90255 -18.401977,2.87219 -62.82924,-36.7156 -24.557673,-61.31718 -5.742287,-7.83 2.537315,-2.03142 -3.450953,0.78549 -0.263549,-0.35967 7.569563,-5.59192 -8.336441,4.5465 -0.301274,-0.41135 2.745568,-2.90576 -3.361036,2.06655 -0.226859,-0.30903 6.406846,-6.33656 -7.191809,5.26635 -0.249082,-0.34005 2.366264,-4.29998 -1.212847,1.22267 0.698667,-1.37202 -2.62568,1.98953 0.947745,-2.02623 -1.096573,1.19012 4.153236,-7.42849 -5.628598,7.45431 -0.387056,-0.5276 1.169953,-3.39051 -1.754415,2.59366 -0.393774,-0.53692 2.827218,-7.37319 -3.58221,6.3438 -0.956532,-1.30431 0.187587,-2.38591 -0.652674,1.75183 -0.827339,-1.1286 -7.55923,-34.77411 -8.859922,-6.64509 0.189134,-1.42004 -3.073714,-1.73686 -0.935342,-7.61762 h -2.853058 l -1.199409,-2.91248 0.310576,-4.03646 h -1.972352 l -1.663465,-4.04005 -0.105936,-2.64171 -0.963766,0.0439 -1.551326,-3.76721 -8.008296,-4.92837 0.56741,-0.36793 -1.24902,-3.37138 0.75809,-6.9298 3.68143,-3.46491 2.165757,-0.43307 0.433049,-4.76456 -5.413616,0.21653 0.757571,-8.01243 1.083138,-1.19114 4.764051,-1.19114 c -4.446178,-8.45096 -3.262009,-20.06908 -3.356901,-30.96762 z m -29.578039,31.14435 1.64641,0.38293 -1.68465,2.3735 v -1.95234 z m 3.15846,0.36484 5.90093,0.97462 2.16576,3.73569 -0.16278,5.03483 -10.71924,0.32505 -0.43305,-6.06371 z m 16.34991,1.62419 -3.3569,5.63067 v -3.24838 l 2.4908,-2.27377 z m 4.32583,0.3421 1.84588,2.14819 -0.64957,5.79293 -5.03483,-0.0543 z m -9.84797,0.95705 0.43304,0.81235 -0.3793,5.84668 -1.62368,-0.16227 0.0538,-4.49327 z m -11.06651,13.81157 h 7.65638 l -0.0734,6.03787 -2.89492,0.86815 -0.0134,-0.49919 -0.26303,0.5824 -0.37,0.1111 0.0331,-2.76778 -0.43305,2.88766 -0.24029,0.0718 -0.19017,-1.13739 -0.11938,1.23041 -0.14211,0.0424 -0.39119,-2.95174 -0.0496,3.08404 -0.0832,0.0254 -0.0103,-0.0233 0.0253,-0.009 -0.0377,-1.41335 -0.31317,0.69247 -0.3116,-0.69813 0.0248,-2.06862 -0.41703,2.78019 -0.17932,-0.34004 0.12558,0.69765 -0.0816,0.54467 -0.31109,-1.86087 -0.18191,1.87378 -0.47077,-3.55224 -0.0532,3.28869 -0.80564,-1.80713 0.28887,2.03089 -0.78186,-1.48259 0.40927,2.27065 -1.04179,0.31266 -0.14005,-0.093 -0.22944,-6.2017 z m 10.0614,0.81441 2.75642,2.14352 0.23151,3.47991 -2.22829,-1.3715 -0.63613,0.19069 z m 10.85825,1.72445 -0.64957,4.33099 -1.40767,0.10853 z m -19.1456,3.94187 0.11369,0.79891 -0.12609,0.27855 h -5.3e-4 z m 0.17622,1.23817 10e-4,0.008 -0.0868,0.0259 -0.003,-0.005 z"
         style="opacity:1;fill:#5c2f40;fill-opacity:1;stroke:none;stroke-width:0.26458332px;stroke-linecap:butt;stroke-linejoin:miter;stroke-opacity:1" />
      <path
         inkscape:connector-curvature="0"
         id="path4530"
         d="m 12.769334,386.33463 -12.85916687,71.28298 c 0,0 -0.08812,4.81513 1.26142197,6.60477 0.921586,1.22211 2.985264,2.2525 4.798155,2.97294 l -6.88484997,1.3286 c 0.826799,-1.96249 1.684967,0.3383 1.108977,-1.24283 L -7.0966399,403.92167 -17.139438,464.43682 c 0,0 -0.0074,0.67226 0.05736,1.53583 l -3.610631,3.2825 0.670243,-2.42623 -2.219502,2.94246 1.789038,-6.89827 -1.599904,3.26128 -1.325499,2.70735 -0.619601,-1.5162 -2.168858,-2.512 1.720823,3.95583 -0.09405,1.72496 h -0.442349 l -0.235646,-0.49816 -0.590661,0.49816 h -0.384471 l -0.122992,-4.29533 -0.639236,4.29533 h -0.38654 l -0.365869,-2.18798 -0.212391,2.18798 h -0.285253 l -0.697116,-5.26116 -0.08475,5.26116 h -0.351401 l -1.136364,-2.54868 0.362251,2.54868 h -0.450101 l -0.814938,-1.54565 0.278538,1.54565 h -2.477368 l -7.483266,-18.17407 -21.38164,-5.34541 h -7.296195 l 0.151413,-0.38034 -0.415481,0.38034 h -2.255676 l 3.647324,-8.22947 -5.092713,8.22947 h -0.498676 l -0.570508,-0.78962 0.62425,-2.55334 -1.066083,1.94149 -0.793234,-1.09866 2.086695,-7.43675 -2.856156,6.3712 -11.322821,-15.67813 -24.589197,-5.3454 -2.95899,2.63033 -0.7028,-1.98022 -0.31988,2.88922 -0.92087,0.81854 -3.19722,-10.25517 1.90272,11.40601 -0.49557,0.44029 -2.35232,-4.52168 1.22008,5.52834 -0.21755,0.19328 -5.17695,-10.83138 3.53777,11.51816 -4.85293,-5.38367 3.30419,6.74844 -4.40232,-4.28191 3.26078,6.0787 -6.87141,6.10814 -26.72705,12.8292 -8.55245,19.24327 -0.66921,0.061 -0.0879,-3.24371 -1.53169,3.39101 -0.36018,0.0325 0.11368,-9.57098 -1.45366,9.69295 -0.38137,0.0346 -0.72347,-4.32739 -0.43046,4.4323 -0.25425,0.0233 -1.25005,-9.43094 -0.15658,9.7472 -2.389,-5.35575 0.85576,6.01877 -2.31717,-4.3951 0.86765,4.81626 h -7.28845 l -6.7293,0.48938 -0.80926,0.33692 0.0393,-3.29488 -0.524,3.49694 -0.78703,0.32814 -0.13074,-0.78187 -0.0847,0.8718 -0.49093,0.20463 -0.51418,-3.88038 -0.0661,4.12223 -0.53434,0.2222 -0.83406,-1.86915 0.29766,2.09291 -0.41031,0.17052 -0.71107,-1.34874 0.27596,1.53064 -45.36571,18.90221 -31.00328,12.82919 -51.31572,-7.48376 -49.17787,-14.96706 -36.3487,4.27622 -28.8649,-14.96703 -78.04277,-5.34543 h -49.17789 l -32.07194,4.27623 -20.31244,-11.75949 -28.86543,1.06918 -9.12812,-16.63671 -28.7259,22.67874 -39.30975,34.77358 19.65513,43.8454 433.91666,1.51204 741.98365,32.51533 -41.70754,-59.94416 -27.1513,-38.45605 -106.11084,-8.62787 -107.5154,33.35403 -102.110046,-35.14772 c 0.65359,-1.47133 -2.8463,-4.87331 -3.28146,-6.06785 l -12.60336,-6.49005 -14.53658,-1.03301 -3.63647,-18.39164 -4.67155,17.85885 -5.84616,0.99994 0.0512,0.47956 -0.44803,0.0863 c -0.004,0.0116 -0.078,0.2253 -0.078,0.2253 l -14.28647,2.50012 0.51676,-0.1788 c 1.70719,-2.85258 -3.98897,-31.47007 -4.88652,-33.93385 z m -29.826608,79.94549 c 0.10386,1.11945 0.337778,2.46068 0.876432,3.175 0.280649,0.37216 0.704276,0.71943 1.195793,1.03921 h -4.724776 l 0.05013,-0.2067 0.224274,-0.98237 z"
         style="opacity:1;fill:#43273a;fill-opacity:1;stroke:none;stroke-width:0.26458332px;stroke-linecap:butt;stroke-linejoin:miter;stroke-opacity:1" />
      <path
         inkscape:connector-curvature="0"
         id="path4718"
         d="M 312.50236,290.85124 263.48055,478.25116 242.32887,388.97858 220.93845,470.75033 191.41209,346.13158 156.18943,480.78021 136.17773,396.3187 109.44241,498.52227 87.626176,406.44624 58.99795,515.88658 l -0.185521,-6.88382 -4.703588,10.41127 a 863.81504,157.15445 0 0 0 -0.712102,-0.0429 l 0.33228,-27.94196 -4.155303,27.71098 a 863.81504,157.15445 0 0 0 -1.118277,-0.0677 l -2.040702,-12.20647 -1.166336,12.01269 a 863.81504,157.15445 0 0 0 -0.894003,-0.0543 l -3.470072,-26.18134 -0.417028,25.94674 a 863.81504,157.15445 0 0 0 -0.911056,-0.0553 l -5.948992,-13.33664 1.861902,13.08962 a 863.81504,157.15445 0 0 0 -1.637109,-0.0987 l -3.345532,-6.34587 -0.0047,-0.16743 -0.03876,0.0858 -1.013375,-1.92236 0.536401,2.9776 -2.259293,5.00176 a 863.81504,157.15445 0 0 0 -2.588473,-0.15605 l 0.280086,-23.56032 -3.503662,23.36498 a 863.81504,157.15445 0 0 0 -2.510441,-0.15142 l -1.300179,-7.77679 -0.743107,7.65328 a 863.81504,157.15445 0 0 0 -1.903243,-0.11523 l -2.884061,-21.76094 -0.346749,21.5656 A 863.81504,157.15445 0 0 0 9.215458,516.701 l -3.9387777,-8.83047 1.2329999,8.66666 A 863.81504,157.15445 0 0 0 3.113505,516.33203 l -2.0143473,-3.82042 0.6738607,3.7393 A 863.81504,157.15445 0 0 0 -111.42627,511.21245 l -0.12868,-4.76869 -2.1208,4.69376 a 863.81504,157.15445 0 0 0 -1.13998,-0.0377 l 0.1819,-15.29932 -2.28358,15.22958 a 863.81504,157.15445 0 0 0 -1.16944,-0.0388 l -0.97668,-5.84153 -0.56224,5.79036 a 863.81504,157.15445 0 0 0 -0.88212,-0.0294 l -1.90531,-14.37484 -0.22996,14.30404 a 863.81504,157.15445 0 0 0 -1.20664,-0.0398 l -2.97088,-6.66056 0.93793,6.59288 a 863.81504,157.15445 0 0 0 -1.50017,-0.0496 l -1.96784,-3.73261 0.66456,3.6892 a 863.81504,157.15445 0 0 0 -4.38836,-0.14574 l -11.31249,-4.07262 -9.82731,-11.33936 -12.099,-3.58478 1.59629,-5.58933 -4.28398,4.79298 -0.92501,-0.2744 5.4963,-16.75712 -7.83776,16.06363 -0.971,-0.28784 1.03766,-7.39283 -2.86287,6.73549 -0.70228,-0.39531 2.89388,-16.53027 -5.08858,15.29572 -1.14825,-0.64595 -0.93121,-8.09924 -1.14567,6.93134 -1.75803,-0.98909 -0.69556,-3.81939 -0.40773,3.19929 -2.67322,-1.50379 -16.41347,4.16822 -0.20051,-7.43056 -3.6375,8.05119 0.23565,-19.81067 -3.13057,20.87882 -1.76371,-10.54922 -1.03198,10.62312 -2.66909,-20.14088 -0.29972,18.64641 -4.56975,-10.24485 1.63763,11.5135 -4.43332,-8.40774 2.0531,11.39412 -13.40176,3.40341 -12.01787,14.42186 a 863.81504,157.15445 0 0 0 -10.2154,-0.0698 863.81504,157.15445 0 0 0 -46.74907,0.45527 l -0.27699,-10.28671 -4.6695,10.33478 a 863.81504,157.15445 0 0 0 -0.74621,0.007 l 0.33176,-27.91507 -4.19094,27.95227 a 863.81504,157.15445 0 0 0 -1.02889,0.0104 l -2.09391,-12.52635 -1.2201,12.55839 a 863.81504,157.15445 0 0 0 -0.76068,0.008 l -3.55015,-26.78906 -0.43151,26.82782 a 863.81504,157.15445 0 0 0 -0.47696,0.005 l -6.3686,-14.27768 2.03708,14.31954 a 863.81504,157.15445 0 0 0 -1.10588,0.0109 l -5.10823,-9.68883 1.75183,9.72137 a 863.81504,157.15445 0 0 0 -3.33674,0.0326 l 0.18603,-19.92024 -5.24669,19.96932 a 863.81504,157.15445 0 0 0 -1.01701,0.01 l -0.95858,-8.95448 -2.08153,8.99943 a 863.81504,157.15445 0 0 0 -1.70379,0.0455 l -1.92494,-11.51556 -1.12602,11.59721 a 863.81504,157.15445 0 0 0 -0.97875,0.0263 l -3.42563,-25.84648 -0.41704,25.94933 a 863.81504,157.15445 0 0 0 -0.87487,0.0233 l -5.98517,-13.41778 1.92339,13.52629 a 863.81504,157.15445 0 0 0 -1.39681,0.0372 l -4.70411,-8.92194 1.62264,9.00462 a 863.81504,157.15445 0 0 0 -52.77403,1.41129 c -0.27215,-1.21936 -0.60847,-2.38906 -1.01132,-3.49488 l -39.03948,-164.76927 -27.08672,103.5482 -29.08141,-122.74084 -28.65925,109.55766 -11.11197,-46.89896 -25.02844,95.67995 -22.27048,-93.99373 -26.21339,100.2099 -14.38931,-60.73015 -26.05989,99.62181 a 863.81504,157.15445 0 0 0 -0.0713,0.008 l -1.08984,-6.52053 -0.65215,6.71174 a 863.81504,157.15445 0 0 0 -1.56217,0.17156 l -2.52905,-19.08101 -0.31163,19.39313 a 863.81504,157.15445 0 0 0 -1.98437,0.21757 l -3.94497,-8.84391 1.29966,9.13432 a 863.81504,157.15445 0 0 0 -0.91157,0.10028 l -18.84381,-79.53108 -21.97695,84.01296 A 863.81504,157.15445 0 0 0 -1120.3936,665.83196 863.81504,157.15445 0 0 0 -256.57865,822.98618 863.81504,157.15445 0 0 0 607.23631,665.83196 863.81504,157.15445 0 0 0 344.70453,553.22643 c 17.39858,-13.29626 22.53293,-40.00825 16.67288,-56.09426 z m -281.893376,225.5304 0.293523,1.62989 a 863.81504,157.15445 0 0 0 -0.250115,-0.015 z"
         style="fill:#10122a;fill-opacity:1;stroke:none;stroke-width:0.15020378px;stroke-linecap:butt;stroke-linejoin:miter;stroke-opacity:1" />
      <path
         sodipodi:nodetypes="cccccccccccccccccccccccccccccccccccccccccccccccc"
         inkscape:connector-curvature="0"
         id="path4662"
         d="m -111.71876,282.03292 -6.08697,0.29713 -7.35355,2.20556 -0.14005,-0.093 -1.10403,-0.13768 -0.87503,-6.24684 0.26547,6.14992 -0.51986,1.03973 -0.22686,0.0682 -27.21436,46.86948 -1.31155,0.96171 -0.007,-0.26202 -0.18087,0.4 -0.75241,0.55137 0.0481,-4.01215 -0.67024,4.46898 -0.27286,0.19999 -0.33073,-1.98024 -0.23254,2.39313 -0.078,0.0574 -0.65267,-4.92787 -0.078,4.85347 -1.1896,-2.66653 0.42633,2.99622 -1.15393,-2.18799 0.6165,3.42201 -1.83038,1.34255 0.0553,-4.65863 -0.77774,5.18833 -0.80615,0.59118 -0.30127,-1.80094 -0.21136,2.17712 -0.40101,0.29353 -0.81287,-6.13605 -0.11007,6.81302 -0.12816,0.0941 -1.6371,-3.67163 0.62735,4.41214 -0.006,0.005 -1.69808,-3.22048 0.71106,3.94446 -9.53223,6.98977 -11.9419,46.20439 -0.70126,6.74947 14.43272,-46.50517 27.79572,-21.38164 23.78697,-47.97444 z"
         style="opacity:0.45500004;fill:#ffff79;fill-opacity:0.1372549;stroke:none;stroke-width:0.26458332px;stroke-linecap:butt;stroke-linejoin:miter;stroke-opacity:1" />
      <path
         id="path5095"
         d="m -96.803391,227.46983 c -2.863321,10.78715 -20.292829,31.86152 -27.502719,5.95571 -0.48398,11.78613 -4.13973,19.79012 -12.1269,22.63014 l 1.94561,0.55553 c 2.01703,-1.42138 5.1169,-3.77859 6.44819,-5.7242 2.48059,-3.62526 4.25194,-12.47314 4.25194,-12.47314 0,0 3.64478,7.65746 7.27604,8.78758 3.31319,1.03111 7.25229,-0.73686 10.01644,-2.83446 4.91001,-3.72602 9.63817,-15.78043 9.63817,-15.78043 l 0.0553,-0.25528 c -7.94e-4,-0.28701 5.29e-4,-0.57536 -0.0021,-0.86145 z"
         style="opacity:0.32900002;fill:#ffff6e;fill-opacity:1;stroke:none;stroke-width:0.26458332px;stroke-linecap:butt;stroke-linejoin:miter;stroke-opacity:1"
         inkscape:connector-curvature="0" />
      <path
         id="path5102"
         d="m -96.801841,242.71386 -0.337965,4.39353 c 0.245755,4.27099 0.656825,8.42363 2.338358,11.66906 l 1.354958,-0.339 c -2.383147,-4.5297 -3.143367,-9.97258 -3.355351,-15.72359 z"
         style="opacity:0.497;fill:#7c5849;fill-opacity:1;stroke:none;stroke-width:0.26458332px;stroke-linecap:butt;stroke-linejoin:miter;stroke-opacity:1"
         inkscape:connector-curvature="0" />
      <path
         id="path5119"
         d="m -511.73104,324.22155 -0.37568,1.43608 27.54148,156.55065 2.74349,-38.41107 -0.77102,2.94762 -28.58378,-120.64122 z m 57.12883,22.7893 30.51286,170.72705 181.42871,-6.8032 10.58334,-12.85142 46.11294,-13.60691 -0.66301,-2.19316 -0.093,-0.0522 -16.41347,4.16822 -0.20051,-7.43056 -3.6375,8.05119 0.23565,-19.81067 -3.13057,20.87882 -1.76371,-10.54922 -1.03198,10.62312 -2.66909,-20.1409 -0.29972,18.6464 -4.56975,-10.24485 1.63763,11.51353 -4.43332,-8.40777 2.0531,11.39415 -13.40176,3.40341 -12.01787,14.42186 a 863.81502,157.15445 0 0 0 -10.2154,-0.0698 863.81502,157.15445 0 0 0 -46.74907,0.45527 l -0.27699,-10.28671 -4.6695,10.33476 a 863.81502,157.15445 0 0 0 -0.74621,0.007 l 0.33176,-27.91508 -4.19094,27.95231 a 863.81502,157.15445 0 0 0 -1.02889,0.0103 l -2.09391,-12.52636 -1.2201,12.5584 a 863.81502,157.15445 0 0 0 -0.76068,0.008 l -3.55015,-26.78906 -0.43151,26.82782 a 863.81502,157.15445 0 0 0 -0.47696,0.005 l -6.3686,-14.27769 2.03708,14.31955 a 863.81502,157.15445 0 0 0 -1.10588,0.0108 l -5.10823,-9.6888 1.75183,9.72137 a 863.81502,157.15445 0 0 0 -3.33674,0.0331 l 0.18603,-19.92075 -5.24669,19.96932 a 863.81502,157.15445 0 0 0 -1.01701,0.0103 l -0.95858,-8.95448 -2.08153,8.99946 a 863.81502,157.15445 0 0 0 -1.70379,0.0455 l -1.92494,-11.51557 -1.12602,11.59722 a 863.81502,157.15445 0 0 0 -0.97875,0.0265 l -3.42563,-25.84646 -0.41704,25.9493 a 863.81502,157.15445 0 0 0 -0.87487,0.0233 l -5.98517,-13.41779 1.92339,13.52632 a 863.81502,157.15445 0 0 0 -1.39681,0.0372 l -4.70411,-8.92194 1.62264,9.00462 a 863.81502,157.15445 0 0 0 -52.77403,1.41128 c -0.27215,-1.21935 -0.60847,-2.38905 -1.01132,-3.49488 z m -97.05869,40.47609 -0.0889,0.33952 8.22015,74.72722 2.2996,-32.77526 -9.15032,-38.61988 z m -47.05345,1.73943 18.89911,120.19629 1.36218,-35.43247 -17.34621,-73.21053 z m -40.82129,40.82129 14.36296,81.64306 v -24.03935 l -11.89231,-50.19228 z"
         style="opacity:0.05100002;fill:#ffff89;fill-opacity:1;stroke:none;stroke-width:0.26458332px;stroke-linecap:butt;stroke-linejoin:miter;stroke-opacity:1"
         inkscape:connector-curvature="0" />
      <path
         id="path5126"
         d="m 191.41209,346.13133 -0.0264,0.0997 0.36018,1.30847 z m -1.49087,5.69991 -33.68166,128.7575 1.75441,3.50935 2.26808,2.64583 z m 52.40765,37.14708 -20.78632,79.46234 0.32969,4.69635 3.77962,1.13377 16.88372,-84.42015 z m -106.15114,7.34012 -26.56478,101.55143 v 7.77316 l 4.15788,6.42546 23.2575,-112.1601 z m -48.551554,10.12754 -28.628226,109.44034 -0.185521,-6.88379 -4.703588,10.41124 a 863.81502,157.15445 0 0 0 -0.712102,-0.0429 l 0.33228,-27.94199 -4.155303,27.71151 a 863.81502,157.15445 0 0 0 -1.118277,-0.0682 l -2.040702,-12.206 -1.166336,12.01272 a 863.81502,157.15445 0 0 0 -0.894003,-0.0548 l -3.470072,-26.18137 -0.417028,25.94674 a 863.81502,157.15445 0 0 0 -0.911056,-0.0553 l -5.948992,-13.33667 1.861902,13.08965 a 863.81502,157.15445 0 0 0 -1.637109,-0.0987 l -3.345532,-6.34588 -0.0047,-0.16743 -0.03876,0.0858 -1.013375,-1.92235 0.5364,2.97759 -2.259293,5.00176 a 863.81502,157.15445 0 0 0 -2.588472,-0.15605 l 0.280086,-23.56032 -3.503662,23.36498 a 863.81502,157.15445 0 0 0 -2.510441,-0.15142 l -1.300179,-7.77677 -0.743107,7.65326 a 863.81502,157.15445 0 0 0 -1.903243,-0.11522 L 12.55375,495.3155 12.207001,516.8811 a 863.81502,157.15445 0 0 0 -2.9915483,-0.18034 l -3.9387777,-8.83047 1.2329999,8.66664 a 863.81502,157.15445 0 0 0 -3.3961752,-0.20515 l -2.0143473,-3.82043 0.6738607,3.7393 a 863.81502,157.15445 0 0 0 -23.2326901,-1.1126 l 17.301786,1.46606 65.768077,5.66994 26.458333,-113.39306 1.654681,6.41562 z m -57.017192,109.9354 0.293523,1.62989 a 863.81502,157.15445 0 0 0 -0.250115,-0.0151 z"
         style="opacity:0.07900002;fill:#ffff81;fill-opacity:1;stroke:none;stroke-width:0.26458332px;stroke-linecap:butt;stroke-linejoin:miter;stroke-opacity:1"
         inkscape:connector-curvature="0" />
      <path
         id="path5131"
         d="m -127.9555,427.89533 -0.0372,0.0217 2.93212,5.46582 -6.87142,6.10817 -26.72705,12.82917 -5.0307,11.31972 6.53552,-10.15339 c 0,0 9.75527,-4.94479 10.28981,-5.21208 0.53454,-0.26725 15.63522,-6.68176 15.63522,-6.68176 l 6.81509,-5.3454 0.2005,-3.07319 z"
         style="opacity:0.06799999;fill:#ffff79;fill-opacity:1;stroke:none;stroke-width:0.26458332px;stroke-linecap:butt;stroke-linejoin:miter;stroke-opacity:1"
         inkscape:connector-curvature="0" />
      <path
         id="path5136"
         d="m -81.194009,318.33198 0.306959,1.53583 3.024102,4.91339 6.236314,3.96875 8.693526,32.8228 -7.374229,-33.9235 -8.859922,-6.64509 0.189135,-1.42004 z m 18.508948,44.17766 0.318844,1.20304 -0.143661,-0.96428 z"
         style="opacity:0.21199999;fill:#ffff81;fill-opacity:1;stroke:none;stroke-width:0.26458332px;stroke-linecap:butt;stroke-linejoin:miter;stroke-opacity:1"
         inkscape:connector-curvature="0" />
      <path
         id="path5145"
         d="m 11.371916,394.08189 -11.46183299,63.53564 c 0,0 -0.08812026,4.81513 1.26142169,6.60477 0.921586,1.22211 2.9852658,2.2525 4.7981567,2.97294 l -3.637504,0.70178 0.874882,1.22473 6.1474283,-0.53486 -0.5343342,-5.07822 -4.2767416,-9.62166 z m -18.1968224,12.20235 -2.6050088,11.69747 -7.7096068,46.45506 c 0,0 -0.0074,0.67225 0.05736,1.5358 l -2.428276,2.20763 v 1.45315 l 0.07493,-0.32814 2.378149,-3.02514 c 0.103861,1.11945 0.337779,2.46068 0.876433,3.175 0.280649,0.37214 0.704275,0.71943 1.195792,1.0392 h -4.525305 v 1.03249 h 3.207039 l 4.81056,1.87121 -0.534335,-4.27622 -1.069185,-6.14744 6.3717039,-55.81726 z m 59.3359134,34.61081 -4.67155,17.85884 -5.846156,0.99994 0.05116,0.47956 -0.448035,0.0863 c -0.004,0.0116 -0.07803,0.22532 -0.07803,0.22532 l -10.306865,1.8035 -2.346626,2.49648 20.045288,-3.20704 2.13837,-2.93987 2.089796,-14.6296 z m -53.03603955,20.13728 -0.27698567,2.47634 0.66972655,0.93739 z"
         style="opacity:0.05499998;fill:#ffff54;fill-opacity:1;stroke:none;stroke-width:0.26458332px;stroke-linecap:butt;stroke-linejoin:miter;stroke-opacity:1"
         inkscape:connector-curvature="0" />
      <circle
         style="opacity:0.90200046;fill:#ffffff;fill-opacity:1;stroke:none;stroke-width:0.97148103;stroke-miterlimit:4;stroke-dasharray:none;stroke-opacity:1;paint-order:markers stroke fill"
         id="circle5239"
         cx="-133.127"
         cy="-86.893227"
         r="2.8561201" />
      <circle
         r="2.8561201"
         cy="34.059155"
         cx="-251.05557"
         id="circle5241"
         style="opacity:0.90200046;fill:#ffffff;fill-opacity:1;stroke:none;stroke-width:0.97148103;stroke-miterlimit:4;stroke-dasharray:none;stroke-opacity:1;paint-order:markers stroke fill" />
      <path
         style="opacity:0.753;fill:url(#linearGradient5439);fill-opacity:1;stroke:none;stroke-width:0.41972589;stroke-miterlimit:4;stroke-dasharray:none;stroke-opacity:1;paint-order:markers stroke fill"
         d="m 284.62743,17.988016 c -11.33189,0.0044 -20.84322,8.539383 -22.07014,19.804648 -2.89804,-3.829413 -7.42123,-6.08188 -12.22363,-6.087146 -6.34852,0.0075 -12.03746,3.922174 -14.31274,9.848966 -1.38791,-0.462662 -2.84091,-0.700319 -4.30391,-0.703961 -7.08936,0.0026 -13.00871,5.407147 -13.65499,12.466988 -0.34581,-0.03539 -0.6939,-0.05401 -1.04243,-0.05582 -4.87027,1.3e-5 -8.81839,3.217025 -8.81837,7.185394 0.003,0.662951 0.11794,1.322411 0.3425,1.959611 l 133.43618,1.123812 c 1.68425,-16.659045 -18.19063,-22.674973 -22.40566,-22.679989 -1.37668,0.0054 -2.74339,0.233932 -4.04693,0.67672 -1.33124,-5.29373 -5.48664,-9.413626 -10.7916,-10.699386 -3.63979,-7.822414 -11.48053,-12.828997 -20.10828,-12.839841 z"
         id="path5281"
         inkscape:connector-curvature="0"
         sodipodi:nodetypes="cccccccccccccc" />
      <path
         sodipodi:nodetypes="cccccccccccccc"
         inkscape:connector-curvature="0"
         id="path5283"
         d="m -15.510482,-182.71899 c -15.588011,0.006 -28.671696,11.74668 -30.359439,27.24306 -3.986512,-5.2677 -10.208557,-8.36617 -16.814682,-8.37341 -8.732954,0.0103 -16.558593,5.39529 -19.688446,13.54812 -1.909205,-0.63643 -3.907932,-0.96335 -5.920417,-0.96836 -9.752042,0.004 -17.894634,7.43802 -18.783654,17.14946 -0.4757,-0.0487 -0.95452,-0.0743 -1.43395,-0.0768 -6.69949,2e-5 -12.13048,4.4253 -12.13045,9.88415 0.004,0.91194 0.16223,1.81909 0.47113,2.69562 l 183.553307,1.5459 c 2.316878,-22.916 -25.022804,-31.19144 -30.820945,-31.19835 -1.893752,0.007 -3.773781,0.3218 -5.56692,0.93089 -1.83123,-7.28199 -7.547361,-12.94928 -14.844798,-14.71796 -5.0068576,-10.76042 -15.7924934,-17.64742 -27.660736,-17.66234 z"
         style="opacity:0.28399999;fill:#ffffff;fill-opacity:1;stroke:none;stroke-width:0.57737029;stroke-miterlimit:4;stroke-dasharray:none;stroke-opacity:1;paint-order:markers stroke fill" />
      <circle
         r="1.7221916"
         cy="-24.905132"
         cx="-92.683548"
         id="circle5285"
         style="opacity:0.90200046;fill:#ffffff;fill-opacity:1;stroke:none;stroke-width:0.5857864;stroke-miterlimit:4;stroke-dasharray:none;stroke-opacity:1;paint-order:markers stroke fill" />
      <circle
         r="2.8561201"
         cy="-8.2741795"
         cx="-514.12701"
         id="circle5287"
         style="opacity:0.90200046;fill:#ffffff;fill-opacity:1;stroke:none;stroke-width:0.97148103;stroke-miterlimit:4;stroke-dasharray:none;stroke-opacity:1;paint-order:markers stroke fill" />
      <circle
         style="opacity:0.90200046;fill:#ffffff;fill-opacity:1;stroke:none;stroke-width:0.97148103;stroke-miterlimit:4;stroke-dasharray:none;stroke-opacity:1;paint-order:markers stroke fill"
         id="circle5289"
         cx="-632.05554"
         cy="112.6782"
         r="2.8561201" />
      <circle
         style="opacity:0.90200046;fill:#ffffff;fill-opacity:1;stroke:none;stroke-width:0.5857864;stroke-miterlimit:4;stroke-dasharray:none;stroke-opacity:1;paint-order:markers stroke fill"
         id="circle5291"
         cx="-473.68353"
         cy="53.713917"
         r="1.7221916" />
      <circle
         r="1.7221916"
         cy="186.76154"
         cx="-248.40973"
         id="circle5293"
         style="opacity:0.90200046;fill:#ffffff;fill-opacity:1;stroke:none;stroke-width:0.5857864;stroke-miterlimit:4;stroke-dasharray:none;stroke-opacity:1;paint-order:markers stroke fill" />
      <circle
         transform="scale(-1,1)"
         r="2.8561201"
         cy="13.600116"
         cx="-156.01682"
         id="circle5295"
         style="opacity:0.90200046;fill:#ffffff;fill-opacity:1;stroke:none;stroke-width:0.97148103;stroke-miterlimit:4;stroke-dasharray:none;stroke-opacity:1;paint-order:markers stroke fill" />
      <circle
         transform="scale(-1,1)"
         style="opacity:0.90200046;fill:#ffffff;fill-opacity:1;stroke:none;stroke-width:0.97148103;stroke-miterlimit:4;stroke-dasharray:none;stroke-opacity:1;paint-order:markers stroke fill"
         id="circle5297"
         cx="-273.94537"
         cy="134.55249"
         r="2.8561201" />
      <circle
         transform="scale(-1,1)"
         style="opacity:0.90200046;fill:#ffffff;fill-opacity:1;stroke:none;stroke-width:0.5857864;stroke-miterlimit:4;stroke-dasharray:none;stroke-opacity:1;paint-order:markers stroke fill"
         id="circle5299"
         cx="-115.57337"
         cy="75.588211"
         r="1.7221916" />
      <circle
         style="opacity:0.90200046;fill:#ffffff;fill-opacity:1;stroke:none;stroke-width:0.97148103;stroke-miterlimit:4;stroke-dasharray:none;stroke-opacity:1;paint-order:markers stroke fill"
         id="circle5301"
         cx="517.50238"
         cy="90.573738"
         r="2.8561201"
         transform="scale(-1,1)" />
      <circle
         r="1.7221916"
         cy="152.56183"
         cx="557.94586"
         id="circle5303"
         style="opacity:0.90200046;fill:#ffffff;fill-opacity:1;stroke:none;stroke-width:0.5857864;stroke-miterlimit:4;stroke-dasharray:none;stroke-opacity:1;paint-order:markers stroke fill"
         transform="scale(-1,1)" />
      <circle
         r="2.8561201"
         cy="124.78424"
         cx="-0.56131339"
         id="circle5309"
         style="opacity:0.90200046;fill:#ffffff;fill-opacity:1;stroke:none;stroke-width:0.97148103;stroke-miterlimit:4;stroke-dasharray:none;stroke-opacity:1;paint-order:markers stroke fill" />
      <circle
         style="opacity:0.90200046;fill:#ffffff;fill-opacity:1;stroke:none;stroke-width:0.5857864;stroke-miterlimit:4;stroke-dasharray:none;stroke-opacity:1;paint-order:markers stroke fill"
         id="circle5311"
         cx="39.882137"
         cy="186.77234"
         r="1.7221916" />
      <circle
         r="2.8561201"
         cy="-110.41295"
         cx="-310.59396"
         id="circle5313"
         style="opacity:0.90200046;fill:#ffffff;fill-opacity:1;stroke:none;stroke-width:0.97148103;stroke-miterlimit:4;stroke-dasharray:none;stroke-opacity:1;paint-order:markers stroke fill" />
      <circle
         style="opacity:0.90200046;fill:#ffffff;fill-opacity:1;stroke:none;stroke-width:0.97148103;stroke-miterlimit:4;stroke-dasharray:none;stroke-opacity:1;paint-order:markers stroke fill"
         id="circle5315"
         cx="124.52083"
         cy="-127.5182"
         r="2.8561201" />
      <path
         sodipodi:nodetypes="cccccccccccccc"
         inkscape:connector-curvature="0"
         id="path5317"
         d="m -435.97537,96.775424 c -18.94153,0.0069 -34.83995,14.273806 -36.89078,33.103966 -4.84415,-6.40095 -12.40477,-10.16602 -20.4321,-10.17482 -10.61171,0.0134 -20.1209,6.55602 -23.92408,16.46278 -2.31994,-0.77333 -4.74865,-1.17059 -7.1941,-1.17666 -11.85004,0.005 -21.74438,9.03816 -22.82464,20.83886 -0.57804,-0.0592 -1.15988,-0.0902 -1.74246,-0.0932 -8.14077,2e-5 -14.74015,5.37734 -14.74012,12.01055 0.005,1.10814 0.19714,2.21044 0.5725,3.27554 l 223.04184,1.87849 c 2.81527,-27.846 -30.40609,-37.90178 -37.45162,-37.91015 -2.30114,0.008 -4.58564,0.39102 -6.76454,1.13116 -2.22519,-8.84861 -9.17104,-15.73512 -18.03842,-17.8843 -6.08399,-13.07535 -19.18998,-21.443981 -33.61148,-21.462122 z"
         style="opacity:0.90200046;fill:url(#linearGradient5597);fill-opacity:1;stroke:none;stroke-width:0.70158213;stroke-miterlimit:4;stroke-dasharray:none;stroke-opacity:1;paint-order:markers stroke fill" />
      <path
         style="opacity:0.48600003;fill:#ffffff;fill-opacity:1;stroke:none;stroke-width:0.29213077;stroke-miterlimit:4;stroke-dasharray:none;stroke-opacity:1;paint-order:markers stroke fill"
         d="m -150.16395,7.8051564 c -7.88704,0.00289 -14.50696,5.9434486 -15.3609,13.7841096 -2.01705,-2.66528 -5.1652,-4.233013 -8.50769,-4.236677 -4.41859,0.0056 -8.37812,2.729851 -9.96172,6.854916 -0.96599,-0.322012 -1.97728,-0.487425 -2.99554,-0.489955 -4.93422,0.0019 -9.05411,3.763396 -9.50392,8.677069 -0.24069,-0.02462 -0.48296,-0.03756 -0.72554,-0.03881 -3.38972,5e-6 -6.13763,2.239058 -6.13762,5.001055 0.002,0.461417 0.0821,0.920404 0.23839,1.363896 l 92.87207,0.782178 c 1.17225,-11.594755 -12.66075,-15.781862 -15.59442,-15.785349 -0.95817,0.0034 -1.90941,0.162812 -2.81668,0.470997 -0.92655,-3.684454 -3.81872,-6.551921 -7.51099,-7.446816 -2.53331,-5.444427 -7.9905,-8.9290282 -13.99544,-8.9365789 z"
         id="path5319"
         inkscape:connector-curvature="0"
         sodipodi:nodetypes="cccccccccccccc" />
      <path
         style="opacity:0.90200046;fill:url(#linearGradient5425);fill-opacity:1;stroke:none;stroke-width:0.60741907;stroke-miterlimit:4;stroke-dasharray:none;stroke-opacity:1;paint-order:markers stroke fill"
         d="m 160.58016,202.37737 c -16.39929,0.006 -30.1639,12.35804 -31.93947,28.6609 -4.19399,-5.54184 -10.73986,-8.80158 -17.6898,-8.8092 -9.18745,0.0116 -17.420369,5.6761 -20.713109,14.25323 -2.00856,-0.66955 -4.11131,-1.01349 -6.22854,-1.01875 -10.25958,0.004 -18.82595,7.82512 -19.76123,18.04198 -0.50045,-0.0512 -1.0042,-0.0781 -1.50859,-0.0807 -7.04815,1e-5 -12.7618,4.65561 -12.76177,10.39855 0.004,0.95941 0.17068,1.91377 0.49566,2.83591 l 193.106219,1.62636 c 2.43742,-24.10864 -26.32512,-32.81477 -32.42503,-32.82202 -1.9923,0.007 -3.97018,0.33853 -5.85664,0.97933 -1.92654,-7.66098 -7.94015,-13.62322 -15.61739,-15.48395 -5.26743,-11.32044 -16.6144,-18.56587 -29.10031,-18.58157 z"
         id="path5321"
         inkscape:connector-curvature="0"
         sodipodi:nodetypes="cccccccccccccc" />
      <circle
         transform="rotate(90)"
         style="opacity:0.07191778;fill:url(#linearGradient5391);fill-opacity:1;stroke:none;stroke-width:1.71120679;stroke-miterlimit:4;stroke-dasharray:none;stroke-opacity:1;paint-order:markers stroke fill"
         id="circle5323"
         cx="228.34837"
         cy="114.01689"
         r="95.129509" />
      <circle
         transform="rotate(90)"
         r="128.39142"
         cy="114.01689"
         cx="228.34837"
         id="circle5325"
         style="opacity:0.03399999;fill:url(#linearGradient5383);fill-opacity:1;stroke:none;stroke-width:2.30952811;stroke-miterlimit:4;stroke-dasharray:none;stroke-opacity:1;paint-order:markers stroke fill" />
      <circle
         transform="rotate(90)"
         style="opacity:0.03399999;fill:url(#linearGradient5375);fill-opacity:1;stroke:none;stroke-width:3.12542057;stroke-miterlimit:4;stroke-dasharray:none;stroke-opacity:1;paint-order:markers stroke fill"
         id="circle5327"
         cx="228.34837"
         cy="114.01689"
         r="173.74857" />
      <circle
         r="228.17714"
         cy="228.34837"
         cx="-114.01689"
         id="circle5329"
         style="opacity:0.05100002;fill:url(#linearGradient5367);fill-opacity:1;stroke:none;stroke-width:4.10449171;stroke-miterlimit:4;stroke-dasharray:none;stroke-opacity:1;paint-order:markers stroke fill" />
      <circle
         style="opacity:0.04500002;fill:url(#linearGradient5359);fill-opacity:1;stroke:none;stroke-width:5.35552692;stroke-miterlimit:4;stroke-dasharray:none;stroke-opacity:1;paint-order:markers stroke fill"
         id="circle5331"
         cx="-114.01689"
         cy="228.34837"
         r="297.72476" />
      <circle
         r="371.80811"
         cy="228.34837"
         cx="-114.01689"
         id="circle5333"
         style="opacity:0.03800001;fill:url(#linearGradient5351);fill-opacity:1;stroke:none;stroke-width:6.68815136;stroke-miterlimit:4;stroke-dasharray:none;stroke-opacity:1;paint-order:markers stroke fill" />
      <circle
         style="opacity:0.02399998;fill:url(#linearGradient5343);fill-opacity:1;stroke:none;stroke-width:8.72788239;stroke-miterlimit:4;stroke-dasharray:none;stroke-opacity:1;paint-order:markers stroke fill"
         id="circle5335"
         cx="-114.01689"
         cy="228.34837"
         r="485.20096" />
      <circle
         style="opacity:0.90200046;fill:#ffffff;fill-opacity:1;stroke:none;stroke-width:0.97148103;stroke-miterlimit:4;stroke-dasharray:none;stroke-opacity:1;paint-order:markers stroke fill"
         id="circle5393"
         cx="-396.12021"
         cy="-191.66289"
         r="2.8561201" />
      <circle
         r="597.08191"
         cy="228.34837"
         cx="-114.01689"
         id="circle5441"
         style="opacity:0.02399998;fill:url(#linearGradient5443);fill-opacity:1;stroke:none;stroke-width:10.74041748;stroke-miterlimit:4;stroke-dasharray:none;stroke-opacity:1;paint-order:markers stroke fill" />
    </g>
    <g
       clip-path="url(#clipPath5669)"
       id="g5787"
       transform="matrix(0.24747733,0,0,0.24747733,125.89563,109.96995)">
      <rect
         style="opacity:1;fill:url(#linearGradient5939);fill-opacity:1;stroke:none;stroke-width:3.82405734;stroke-miterlimit:4;stroke-dasharray:none;stroke-opacity:1;paint-order:markers stroke fill"
         id="rect5689"
         width="2277.1365"
         height="1206.0237"
         x="-1321.3806"
         y="-426.81769" />
      <path
         style="opacity:0.61600001;fill:#cf5261;fill-opacity:1;stroke:none;stroke-width:0.26458332px;stroke-linecap:butt;stroke-linejoin:miter;stroke-opacity:1"
         d="m -523.11905,333.2857 155.72621,-51.40476 84.66666,-18.14285 39.30952,12.09524 84.66666,13.60715 98.27381,25.70237 74.083333,1.51191 143.630947,-30.23809 105.83333,27.21427 89.20239,31.75 102.80952,34.77382 1.51191,90.71427 L -492.88093,442.14285 -571.49999,424 l -240.39285,-7.55952 108.85712,-25.70239 95.25,-37.79761 z"
         id="path5691"
         inkscape:connector-curvature="0" />
      <path
         style="fill:#963b4a;fill-opacity:1;stroke:none;stroke-width:0.26458332px;stroke-linecap:butt;stroke-linejoin:miter;stroke-opacity:1"
         d="m 81.642856,405.85715 86.178574,-15.11906 34.77381,-22.67857 101.29761,-15.11904 122.4643,-39.30954 25.70236,54.42858 3.02382,98.27381 -380.999998,-22.67857 z"
         id="path5693"
         inkscape:connector-curvature="0" />
      <path
         inkscape:connector-curvature="0"
         style="fill:#963b4a;fill-opacity:1;stroke:none;stroke-width:0.26458332px;stroke-linecap:butt;stroke-linejoin:miter;stroke-opacity:1"
         d="m -562.33517,211.47391 -55.59197,25.65786 -211.67752,57.73034 -4.27622,305.75599 532.40109,12.8292 335.690105,6.41408 -19.24327,-117.59851 -29.93409,-51.31572 -151.809335,-51.31573 -58.36595,-20.12643 -1.23506,-7.93697 -1.70429,6.92359 -0.70125,-0.24183 -8.73332,-0.64698 -1.42265,-11.38021 -0.9679,11.20294 -24.20679,-1.79266 -2.08669,-8.60825 c 0,0 0.0591,4.2553 0.11679,8.46201 l -3.31504,-0.24545 -2.41433,-17.30386 -0.95808,17.05425 -4.07935,-0.30231 -2.17918,-11.67371 -0.14727,11.50112 -7.336,-0.54311 -55.59247,-40.62492 -4.89995,-3.40288 -0.73279,-7.62125 -0.80254,6.55516 -4.37594,-3.03858 -2.38125,-18.25781 -1.23042,15.74943 -7.60677,-5.28235 -0.99013,-11.2231 -0.96996,9.86192 -3.56568,-2.47631 v -18.72496 l -3.16878,16.52457 -46.24938,-32.11795 -36.3487,-14.96703 -49.17736,-53.45359 z"
         id="path5695" />
      <path
         inkscape:connector-curvature="0"
         style="opacity:0.031;fill:#ffffff;fill-opacity:1;stroke:none;stroke-width:0.26458332px;stroke-linecap:butt;stroke-linejoin:miter;stroke-opacity:1"
         d="m -562.33517,211.47391 -0.0967,0.0444 54.43183,8.37469 15.11898,10.58333 24.19077,30.23794 18.14256,18.14308 v -9.0718 l 27.21435,15.11898 42.33333,28.72642 66.52358,55.94025 30.23846,12.09537 110.36899,21.16667 -5.71335,-7.61762 -45.56001,-15.71067 -1.23506,-7.93697 -1.70429,6.92359 -0.70125,-0.24183 -8.73332,-0.64698 -1.42265,-11.38021 -0.9679,11.20294 -24.20679,-1.79266 -2.08669,-8.60825 c 0,0 0.0591,4.2553 0.11679,8.46201 l -3.31504,-0.24545 -2.41433,-17.30386 -0.95808,17.05425 -4.07935,-0.30231 -2.17918,-11.67371 -0.14727,11.50112 -7.336,-0.54311 -55.59247,-40.62492 -4.89995,-3.40288 -0.73279,-7.62125 -0.80254,6.55516 -4.37594,-3.03858 -2.38125,-18.25781 -1.23042,15.74943 -7.60677,-5.28235 -0.99013,-11.2231 -0.96996,9.86192 -3.56568,-2.47631 v -18.72496 l -3.16878,16.52457 -46.24938,-32.11795 -36.3487,-14.96703 -49.17736,-53.45359 z"
         id="path5697" />
      <path
         inkscape:connector-curvature="0"
         style="opacity:1;fill:#783545;fill-opacity:1;stroke:none;stroke-width:0.26458332px;stroke-linecap:butt;stroke-linejoin:miter;stroke-opacity:1"
         d="m 108.41457,356.38443 -3.67058,32.86623 -4.09277,-1.04799 -4.798675,-27.00766 -2.842202,25.05067 -39.815658,-10.19681 -39.582596,6.98511 -1.584916,-10.66395 -1.226282,11.16004 -3.766695,0.66456 -2.7579714,-20.9119 -1.7017048,21.69893 -3.7475748,0.66146 -2.5688354,-16.48013 -0.6082315,17.04083 -19.5626301,3.45197 -60.475895,21.16666 -105.833333,1.51207 -61.98846,16.63102 -23.59908,14.74949 -3.75428,-18.9601 -1.52188,22.25808 -3.3967,2.12288 -2.56521,-38.01163 -4.64675,42.51936 -1.78593,1.1162 -3.45612,-17.17619 -0.10232,19.39983 -2.29081,1.43198 -4.55581,-29.38426 -2.16628,33.93848 -4.89788,3.37759 -3.3595,-25.55608 c 0,0 -0.90001,20.92828 -1.3689,28.81736 l -72.60384,50.07136 873.88101,16.63105 -9.07126,-83.15515 -107.3454,-21.16667 -111.88101,-1.51151 -80.13103,-22.67874 -24.22281,-6.20376 -3.90829,-17.41496 -1.87637,15.93393 -5.48545,-1.4051 -3.86385,-16.93384 -1.8278,15.47657 -3.02824,-0.77565 -5.5671,-35.28105 -3.67574,32.91427 -2.45153,-0.62788 -4.29638,-21.59559 -2.29754,19.9068 -0.69246,-0.17724 z"
         id="path5699" />
      <path
         style="opacity:1;fill:#783545;fill-opacity:1;stroke:none;stroke-width:0.26458332px;stroke-linecap:butt;stroke-linejoin:miter;stroke-opacity:1"
         d="m -542.80848,338.17528 -10.24692,60.54926 -4.0504,-0.85265 -3.62664,-34.0465 -5.78054,32.06625 -4.43796,-0.93429 -3.14503,-29.52845 -5.34024,29.62301 -8.6093,0.53795 -3.15587,-29.62661 -5.4374,30.16403 -24.2874,1.51826 -40.8213,-24.19077 -92.22639,-16.63102 -3.0236,149.67873 h 122.46437 l 344.71382,-10.58334 -63.49999,-19.65462 -43.84488,-25.70231 -51.40512,-12.09538 -54.42821,-25.70231 -19.9078,-5.89886 -3.61686,-33.95297 -5.62702,31.21411 -4.18788,-1.24074 z"
         id="path5701"
         inkscape:connector-curvature="0" />
      <circle
         style="opacity:1;fill:#ffffff;fill-opacity:1;stroke:none;stroke-width:1.19447494;stroke-miterlimit:4;stroke-dasharray:none;stroke-opacity:1;paint-order:markers stroke fill"
         id="circle5703"
         cx="-114.01689"
         cy="228.34837"
         r="66.40332" />
      <path
         style="opacity:1;fill:#5c2f40;fill-opacity:1;stroke:none;stroke-width:0.26458332px;stroke-linecap:butt;stroke-linejoin:miter;stroke-opacity:1"
         d="m -96.803391,227.46983 c -2.863321,10.78715 -20.292829,31.86152 -27.502719,5.95571 -0.48398,11.78613 -4.13973,19.79012 -12.1269,22.63014 l 6.06371,1.7322 2.38177,2.16576 0.65008,8.98706 -6.8218,0.10851 -0.32505,4.98057 3.68143,0.21653 v 1.6242 l 1.19115,-0.10853 2.27427,2.38228 0.31006,5.78932 -0.87333,-1.74099 0.76791,2.25568 -0.20774,0.41495 -0.49092,-0.65577 0.3638,0.91054 -0.0651,0.12972 -0.0775,0.0233 -1.57148,-2.25517 1.27124,2.56058 -0.0925,0.15865 -1.26194,-1.00873 1.01751,1.43039 -0.0506,0.0863 -1.15342,-0.80357 0.92294,1.20095 -26.44541,45.54503 -1.31155,0.96171 -0.007,-0.26202 -0.18087,0.4 -0.75241,0.55136 0.0481,-4.01214 -0.67024,4.46897 -0.27286,0.2 -0.33073,-1.98025 -0.23254,2.39313 -0.078,0.0574 -0.65267,-4.92786 -0.078,4.85346 -1.1896,-2.66652 0.42633,2.99622 -1.15393,-2.188 0.6165,3.42202 -1.83038,1.34255 0.0553,-4.65863 -0.77774,5.18832 -0.80615,0.59119 -0.30127,-1.80094 -0.21136,2.17712 -0.40101,0.29353 -0.81287,-6.13606 -0.11007,6.81302 -0.12816,0.0941 -1.6371,-3.67162 0.62735,4.41214 -0.006,0.005 -1.69808,-3.22048 0.71106,3.94446 -9.53223,6.98976 -35.65932,137.96883 -24.19025,12.09538 -48.38102,-4.53562 -44.1968,-20.62512 0.39222,-0.80097 -0.78753,0.6165 -0.11732,-0.0548 1.26971,-2.35747 -1.60766,2.19985 -0.12247,-0.0573 0.3643,-1.1121 -0.65214,0.99738 -0.0894,-0.0244 0.91107,-2.49237 -1.29813,2.38694 -0.031,-0.009 0.10025,-1.60198 -0.5271,1.48572 -0.0558,-0.0151 -0.003,-1.25265 -0.36174,1.15293 -0.63561,-0.17312 0.78497,-1.60354 -1.72189,1.34774 -0.12866,-0.0351 2.54404,-4.72323 -3.30059,4.51704 -0.12195,-0.0331 0.82786,-2.52751 -1.52755,2.33682 -0.0532,-0.0151 1.90325,-5.20692 -2.5337,4.65709 0.19947,-3.18275 -1.10535,3.11558 -0.008,-2.70164 -0.83767,2.66959 -0.88884,-0.24235 0.16174,-0.33023 -0.35449,0.27752 -0.34623,-0.0946 1.06555,-1.97815 -1.38234,1.89187 -0.24392,-0.0667 0.26046,-0.79529 -0.48059,0.73536 -0.15814,-0.0429 0.80875,-2.21123 -1.15239,2.1172 -0.15812,-0.0429 0.0811,-1.29812 -0.42685,1.20353 -0.15658,-0.0424 -0.003,-0.94361 -0.27234,0.86868 -1.39578,-0.38086 -0.11369,-2.31458 c 4.58903,0.17317 5.34712,-2.95267 5.53402,-4.98057 -2.15056,-11.19645 -4.86929,-20.40406 -6.36394,-33.89614 -1.86592,13.00858 -5.45256,22.57631 -8.3013,33.61915 -0.86554,5.40067 3.50001,4.79856 5.6725,5.81102 l -0.0145,0.78237 -13.38265,-3.6494 0.49353,-0.85108 -1.03923,0.70225 -0.22064,-0.0605 1.92648,-3.04374 -2.44998,2.90112 -0.1509,-0.0414 0.64855,-1.59216 -1.11207,1.46556 -0.0739,-0.0201 1.56165,-3.49073 -2.04483,3.20032 0.30282,-2.26446 -0.94671,2.17143 0.13023,-1.93166 -0.72501,1.84589 -1.41335,-0.3855 -0.16809,-5.94228 c 8.86528,0.33451 11.65267,-5.70402 10.50181,-10.94457 -4.15451,-21.62963 -9.40689,-39.41632 -12.29434,-65.48075 -3.60463,25.13037 -10.53288,43.6135 -16.03624,64.94643 -1.672,10.43321 6.76111,9.26925 10.95801,11.22516 l -0.0636,3.43286 -0.37309,0.72398 -0.15451,-0.0424 0.17208,-2.69854 -0.52916,2.60138 -0.20672,-0.0563 -0.1111,-0.97305 -0.13592,0.90588 -0.17415,-0.0476 -0.19015,-2.3735 -0.15505,2.27894 -0.31779,-0.0863 -0.35502,-0.92138 0.076,0.84489 -0.41187,-0.11213 -0.12557,-0.27077 0.031,0.24495 -19.2753,-5.25653 -0.10594,-2.15337 c 8.31501,0.31377 9.68865,-5.34982 10.02729,-9.02425 -3.89665,-20.28714 -8.82285,-36.97025 -11.53107,-61.41693 -3.38093,23.57056 -9.8792,40.90633 -15.04096,60.91515 -0.68609,4.28122 0.44199,6.48086 2.25775,7.75404 l -5.1289,-1.39888 -40.82126,7.55923 -31.75,-9.07127 -58.96436,12.09537 -9.07129,-9.07126 -42.33383,16.63049 c 0,0 -66.52369,3.02411 -72.5713,3.02411 -6.0476,0 -7.55922,96.76206 -7.55922,96.76206 L 367.2591,580.52273 311.31885,553.30835 217.58038,532.14169 95.590409,485.16524 l -35.918737,-4.90255 -18.401977,2.87219 -62.82924,-36.7156 -24.557673,-61.31718 -5.742287,-7.83 2.537315,-2.03142 -3.450953,0.78549 -0.263549,-0.35967 7.569563,-5.59192 -8.336441,4.5465 -0.301274,-0.41135 2.745568,-2.90576 -3.361036,2.06655 -0.226859,-0.30903 6.406846,-6.33656 -7.191809,5.26635 -0.249082,-0.34005 2.366264,-4.29998 -1.212847,1.22267 0.698667,-1.37202 -2.62568,1.98953 0.947745,-2.02623 -1.096573,1.19012 4.153236,-7.42849 -5.628598,7.45431 -0.387056,-0.5276 1.169953,-3.39051 -1.754415,2.59366 -0.393774,-0.53692 2.827218,-7.37319 -3.58221,6.3438 -0.956532,-1.30431 0.187587,-2.38591 -0.652674,1.75183 -0.827339,-1.1286 -7.55923,-34.77411 -8.859922,-6.64509 0.189134,-1.42004 -3.073714,-1.73686 -0.935342,-7.61762 h -2.853058 l -1.199409,-2.91248 0.310576,-4.03646 h -1.972352 l -1.663465,-4.04005 -0.105936,-2.64171 -0.963766,0.0439 -1.551326,-3.76721 -8.008296,-4.92837 0.56741,-0.36793 -1.24902,-3.37138 0.75809,-6.9298 3.68143,-3.46491 2.165757,-0.43307 0.433049,-4.76456 -5.413616,0.21653 0.757571,-8.01243 1.083138,-1.19114 4.764051,-1.19114 c -4.446178,-8.45096 -3.262009,-20.06908 -3.356901,-30.96762 z m -29.578039,31.14435 1.64641,0.38293 -1.68465,2.3735 v -1.95234 z m 3.15846,0.36484 5.90093,0.97462 2.16576,3.73569 -0.16278,5.03483 -10.71924,0.32505 -0.43305,-6.06371 z m 16.34991,1.62419 -3.3569,5.63067 v -3.24838 l 2.4908,-2.27377 z m 4.32583,0.3421 1.84588,2.14819 -0.64957,5.79293 -5.03483,-0.0543 z m -9.84797,0.95705 0.43304,0.81235 -0.3793,5.84668 -1.62368,-0.16227 0.0538,-4.49327 z m -11.06651,13.81157 h 7.65638 l -0.0734,6.03787 -2.89492,0.86815 -0.0134,-0.49919 -0.26303,0.5824 -0.37,0.1111 0.0331,-2.76778 -0.43305,2.88766 -0.24029,0.0718 -0.19017,-1.13739 -0.11938,1.23041 -0.14211,0.0424 -0.39119,-2.95174 -0.0496,3.08404 -0.0832,0.0254 -0.0103,-0.0233 0.0253,-0.009 -0.0377,-1.41335 -0.31317,0.69247 -0.3116,-0.69813 0.0248,-2.06862 -0.41703,2.78019 -0.17932,-0.34004 0.12558,0.69765 -0.0816,0.54467 -0.31109,-1.86087 -0.18191,1.87378 -0.47077,-3.55224 -0.0532,3.28869 -0.80564,-1.80713 0.28887,2.03089 -0.78186,-1.48259 0.40927,2.27065 -1.04179,0.31266 -0.14005,-0.093 -0.22944,-6.2017 z m 10.0614,0.81441 2.75642,2.14352 0.23151,3.47991 -2.22829,-1.3715 -0.63613,0.19069 z m 10.85825,1.72445 -0.64957,4.33099 -1.40767,0.10853 z m -19.1456,3.94187 0.11369,0.79891 -0.12609,0.27855 h -5.3e-4 z m 0.17622,1.23817 10e-4,0.008 -0.0868,0.0259 -0.003,-0.005 z"
         id="path5705"
         inkscape:connector-curvature="0"
         sodipodi:nodetypes="ccccccccccccccccccccccccccccccccccccccccccccccccccccccccccccccccccccccccccccccccccccccccccccccccccccccccccccccccccccccccccccccccccccccccccccccccccccccccccccccccccccccccccccccsccccccccccccccccccccccccccccccccccccccccccccccccccccccccccccccccccccccccccccccccccccccccccccccccccccccccccccccccccccccccccccccccccccccccccccccccccccccc" />
      <path
         style="opacity:1;fill:#43273a;fill-opacity:1;stroke:none;stroke-width:0.26458332px;stroke-linecap:butt;stroke-linejoin:miter;stroke-opacity:1"
         d="m 12.769334,386.33463 -12.85916687,71.28298 c 0,0 -0.08812,4.81513 1.26142197,6.60477 0.921586,1.22211 2.985264,2.2525 4.798155,2.97294 l -6.88484997,1.3286 c 0.826799,-1.96249 1.684967,0.3383 1.108977,-1.24283 L -7.0966399,403.92167 -17.139438,464.43682 c 0,0 -0.0074,0.67226 0.05736,1.53583 l -3.610631,3.2825 0.670243,-2.42623 -2.219502,2.94246 1.789038,-6.89827 -1.599904,3.26128 -1.325499,2.70735 -0.619601,-1.5162 -2.168858,-2.512 1.720823,3.95583 -0.09405,1.72496 h -0.442349 l -0.235646,-0.49816 -0.590661,0.49816 h -0.384471 l -0.122992,-4.29533 -0.639236,4.29533 h -0.38654 l -0.365869,-2.18798 -0.212391,2.18798 h -0.285253 l -0.697116,-5.26116 -0.08475,5.26116 h -0.351401 l -1.136364,-2.54868 0.362251,2.54868 h -0.450101 l -0.814938,-1.54565 0.278538,1.54565 h -2.477368 l -7.483266,-18.17407 -21.38164,-5.34541 h -7.296195 l 0.151413,-0.38034 -0.415481,0.38034 h -2.255676 l 3.647324,-8.22947 -5.092713,8.22947 h -0.498676 l -0.570508,-0.78962 0.62425,-2.55334 -1.066083,1.94149 -0.793234,-1.09866 2.086695,-7.43675 -2.856156,6.3712 -11.322821,-15.67813 -24.589197,-5.3454 -2.95899,2.63033 -0.7028,-1.98022 -0.31988,2.88922 -0.92087,0.81854 -3.19722,-10.25517 1.90272,11.40601 -0.49557,0.44029 -2.35232,-4.52168 1.22008,5.52834 -0.21755,0.19328 -5.17695,-10.83138 3.53777,11.51816 -4.85293,-5.38367 3.30419,6.74844 -4.40232,-4.28191 3.26078,6.0787 -6.87141,6.10814 -26.72705,12.8292 -8.55245,19.24327 -0.66921,0.061 -0.0879,-3.24371 -1.53169,3.39101 -0.36018,0.0325 0.11368,-9.57098 -1.45366,9.69295 -0.38137,0.0346 -0.72347,-4.32739 -0.43046,4.4323 -0.25425,0.0233 -1.25005,-9.43094 -0.15658,9.7472 -2.389,-5.35575 0.85576,6.01877 -2.31717,-4.3951 0.86765,4.81626 h -7.28845 l -6.7293,0.48938 -0.80926,0.33692 0.0393,-3.29488 -0.524,3.49694 -0.78703,0.32814 -0.13074,-0.78187 -0.0847,0.8718 -0.49093,0.20463 -0.51418,-3.88038 -0.0661,4.12223 -0.53434,0.2222 -0.83406,-1.86915 0.29766,2.09291 -0.41031,0.17052 -0.71107,-1.34874 0.27596,1.53064 -45.36571,18.90221 -31.00328,12.82919 -51.31572,-7.48376 -49.17787,-14.96706 -36.3487,4.27622 -28.8649,-14.96703 -78.04277,-5.34543 h -49.17789 l -32.07194,4.27623 -20.31244,-11.75949 -28.86543,1.06918 -9.12812,-16.63671 -28.7259,22.67874 -39.30975,34.77358 19.65513,43.8454 433.91666,1.51204 741.98365,32.51533 -41.70754,-59.94416 -27.1513,-38.45605 -106.11084,-8.62787 -107.5154,33.35403 -102.110046,-35.14772 c 0.65359,-1.47133 -2.8463,-4.87331 -3.28146,-6.06785 l -12.60336,-6.49005 -14.53658,-1.03301 -3.63647,-18.39164 -4.67155,17.85885 -5.84616,0.99994 0.0512,0.47956 -0.44803,0.0863 c -0.004,0.0116 -0.078,0.2253 -0.078,0.2253 l -14.28647,2.50012 0.51676,-0.1788 c 1.70719,-2.85258 -3.98897,-31.47007 -4.88652,-33.93385 z m -29.826608,79.94549 c 0.10386,1.11945 0.337778,2.46068 0.876432,3.175 0.280649,0.37216 0.704276,0.71943 1.195793,1.03921 h -4.724776 l 0.05013,-0.2067 0.224274,-0.98237 z"
         id="path5707"
         inkscape:connector-curvature="0" />
      <path
         style="fill:#141526;fill-opacity:1;stroke:none;stroke-width:0.15020378px;stroke-linecap:butt;stroke-linejoin:miter;stroke-opacity:1"
         d="M 312.50236,290.85124 263.48055,478.25116 242.32887,388.97858 220.93845,470.75033 191.41209,346.13158 156.18943,480.78021 136.17773,396.3187 109.44241,498.52227 87.626176,406.44624 58.99795,515.88658 l -0.185521,-6.88382 -4.703588,10.41127 a 863.81504,157.15445 0 0 0 -0.712102,-0.0429 l 0.33228,-27.94196 -4.155303,27.71098 a 863.81504,157.15445 0 0 0 -1.118277,-0.0677 l -2.040702,-12.20647 -1.166336,12.01269 a 863.81504,157.15445 0 0 0 -0.894003,-0.0543 l -3.470072,-26.18134 -0.417028,25.94674 a 863.81504,157.15445 0 0 0 -0.911056,-0.0553 l -5.948992,-13.33664 1.861902,13.08962 a 863.81504,157.15445 0 0 0 -1.637109,-0.0987 l -3.345532,-6.34587 -0.0047,-0.16743 -0.03876,0.0858 -1.013375,-1.92236 0.536401,2.9776 -2.259293,5.00176 a 863.81504,157.15445 0 0 0 -2.588473,-0.15605 l 0.280086,-23.56032 -3.503662,23.36498 a 863.81504,157.15445 0 0 0 -2.510441,-0.15142 l -1.300179,-7.77679 -0.743107,7.65328 a 863.81504,157.15445 0 0 0 -1.903243,-0.11523 l -2.884061,-21.76094 -0.346749,21.5656 A 863.81504,157.15445 0 0 0 9.215458,516.701 l -3.9387777,-8.83047 1.2329999,8.66666 A 863.81504,157.15445 0 0 0 3.113505,516.33203 l -2.0143473,-3.82042 0.6738607,3.7393 A 863.81504,157.15445 0 0 0 -111.42627,511.21245 l -0.12868,-4.76869 -2.1208,4.69376 a 863.81504,157.15445 0 0 0 -1.13998,-0.0377 l 0.1819,-15.29932 -2.28358,15.22958 a 863.81504,157.15445 0 0 0 -1.16944,-0.0388 l -0.97668,-5.84153 -0.56224,5.79036 a 863.81504,157.15445 0 0 0 -0.88212,-0.0294 l -1.90531,-14.37484 -0.22996,14.30404 a 863.81504,157.15445 0 0 0 -1.20664,-0.0398 l -2.97088,-6.66056 0.93793,6.59288 a 863.81504,157.15445 0 0 0 -1.50017,-0.0496 l -1.96784,-3.73261 0.66456,3.6892 a 863.81504,157.15445 0 0 0 -4.38836,-0.14574 l -11.31249,-4.07262 -9.82731,-11.33936 -12.099,-3.58478 1.59629,-5.58933 -4.28398,4.79298 -0.92501,-0.2744 5.4963,-16.75712 -7.83776,16.06363 -0.971,-0.28784 1.03766,-7.39283 -2.86287,6.73549 -0.70228,-0.39531 2.89388,-16.53027 -5.08858,15.29572 -1.14825,-0.64595 -0.93121,-8.09924 -1.14567,6.93134 -1.75803,-0.98909 -0.69556,-3.81939 -0.40773,3.19929 -2.67322,-1.50379 -16.41347,4.16822 -0.20051,-7.43056 -3.6375,8.05119 0.23565,-19.81067 -3.13057,20.87882 -1.76371,-10.54922 -1.03198,10.62312 -2.66909,-20.14088 -0.29972,18.64641 -4.56975,-10.24485 1.63763,11.5135 -4.43332,-8.40774 2.0531,11.39412 -13.40176,3.40341 -12.01787,14.42186 a 863.81504,157.15445 0 0 0 -10.2154,-0.0698 863.81504,157.15445 0 0 0 -46.74907,0.45527 l -0.27699,-10.28671 -4.6695,10.33478 a 863.81504,157.15445 0 0 0 -0.74621,0.007 l 0.33176,-27.91507 -4.19094,27.95227 a 863.81504,157.15445 0 0 0 -1.02889,0.0104 l -2.09391,-12.52635 -1.2201,12.55839 a 863.81504,157.15445 0 0 0 -0.76068,0.008 l -3.55015,-26.78906 -0.43151,26.82782 a 863.81504,157.15445 0 0 0 -0.47696,0.005 l -6.3686,-14.27768 2.03708,14.31954 a 863.81504,157.15445 0 0 0 -1.10588,0.0109 l -5.10823,-9.68883 1.75183,9.72137 a 863.81504,157.15445 0 0 0 -3.33674,0.0326 l 0.18603,-19.92024 -5.24669,19.96932 a 863.81504,157.15445 0 0 0 -1.01701,0.01 l -0.95858,-8.95448 -2.08153,8.99943 a 863.81504,157.15445 0 0 0 -1.70379,0.0455 l -1.92494,-11.51556 -1.12602,11.59721 a 863.81504,157.15445 0 0 0 -0.97875,0.0263 l -3.42563,-25.84648 -0.41704,25.94933 a 863.81504,157.15445 0 0 0 -0.87487,0.0233 l -5.98517,-13.41778 1.92339,13.52629 a 863.81504,157.15445 0 0 0 -1.39681,0.0372 l -4.70411,-8.92194 1.62264,9.00462 a 863.81504,157.15445 0 0 0 -52.77403,1.41129 c -0.27215,-1.21936 -0.60847,-2.38906 -1.01132,-3.49488 l -39.03948,-164.76927 -27.08672,103.5482 -29.08141,-122.74084 -28.65925,109.55766 -11.11197,-46.89896 -25.02844,95.67995 -22.27048,-93.99373 -26.21339,100.2099 -14.38931,-60.73015 -26.05989,99.62181 a 863.81504,157.15445 0 0 0 -0.0713,0.008 l -1.08984,-6.52053 -0.65215,6.71174 a 863.81504,157.15445 0 0 0 -1.56217,0.17156 l -2.52905,-19.08101 -0.31163,19.39313 a 863.81504,157.15445 0 0 0 -1.98437,0.21757 l -3.94497,-8.84391 1.29966,9.13432 a 863.81504,157.15445 0 0 0 -0.91157,0.10028 l -18.84381,-79.53108 -21.97695,84.01296 A 863.81504,157.15445 0 0 0 -1120.3936,665.83196 863.81504,157.15445 0 0 0 -256.57865,822.98618 863.81504,157.15445 0 0 0 607.23631,665.83196 863.81504,157.15445 0 0 0 344.70453,553.22643 c 17.39858,-13.29626 22.53293,-40.00825 16.67288,-56.09426 z m -281.893376,225.5304 0.293523,1.62989 a 863.81504,157.15445 0 0 0 -0.250115,-0.015 z"
         id="path5709"
         inkscape:connector-curvature="0" />
      <path
         style="opacity:0.45500004;fill:#ffff79;fill-opacity:0.1372549;stroke:none;stroke-width:0.26458332px;stroke-linecap:butt;stroke-linejoin:miter;stroke-opacity:1"
         d="m -111.71876,282.03292 -6.08697,0.29713 -7.35355,2.20556 -0.14005,-0.093 -1.10403,-0.13768 -0.87503,-6.24684 0.26547,6.14992 -0.51986,1.03973 -0.22686,0.0682 -27.21436,46.86948 -1.31155,0.96171 -0.007,-0.26202 -0.18087,0.4 -0.75241,0.55137 0.0481,-4.01215 -0.67024,4.46898 -0.27286,0.19999 -0.33073,-1.98024 -0.23254,2.39313 -0.078,0.0574 -0.65267,-4.92787 -0.078,4.85347 -1.1896,-2.66653 0.42633,2.99622 -1.15393,-2.18799 0.6165,3.42201 -1.83038,1.34255 0.0553,-4.65863 -0.77774,5.18833 -0.80615,0.59118 -0.30127,-1.80094 -0.21136,2.17712 -0.40101,0.29353 -0.81287,-6.13605 -0.11007,6.81302 -0.12816,0.0941 -1.6371,-3.67163 0.62735,4.41214 -0.006,0.005 -1.69808,-3.22048 0.71106,3.94446 -9.53223,6.98977 -11.9419,46.20439 -0.70126,6.74947 14.43272,-46.50517 27.79572,-21.38164 23.78697,-47.97444 z"
         id="path5711"
         inkscape:connector-curvature="0"
         sodipodi:nodetypes="cccccccccccccccccccccccccccccccccccccccccccccccc" />
      <path
         inkscape:connector-curvature="0"
         style="opacity:0.32900002;fill:#ffff6e;fill-opacity:1;stroke:none;stroke-width:0.26458332px;stroke-linecap:butt;stroke-linejoin:miter;stroke-opacity:1"
         d="m -96.803391,227.46983 c -2.863321,10.78715 -20.292829,31.86152 -27.502719,5.95571 -0.48398,11.78613 -4.13973,19.79012 -12.1269,22.63014 l 1.94561,0.55553 c 2.01703,-1.42138 5.1169,-3.77859 6.44819,-5.7242 2.48059,-3.62526 4.25194,-12.47314 4.25194,-12.47314 0,0 3.64478,7.65746 7.27604,8.78758 3.31319,1.03111 7.25229,-0.73686 10.01644,-2.83446 4.91001,-3.72602 9.63817,-15.78043 9.63817,-15.78043 l 0.0553,-0.25528 c -7.94e-4,-0.28701 5.29e-4,-0.57536 -0.0021,-0.86145 z"
         id="path5713" />
      <path
         inkscape:connector-curvature="0"
         style="opacity:0.497;fill:#7c5849;fill-opacity:1;stroke:none;stroke-width:0.26458332px;stroke-linecap:butt;stroke-linejoin:miter;stroke-opacity:1"
         d="m -96.801841,242.71386 -0.337965,4.39353 c 0.245755,4.27099 0.656825,8.42363 2.338358,11.66906 l 1.354958,-0.339 c -2.383147,-4.5297 -3.143367,-9.97258 -3.355351,-15.72359 z"
         id="path5715" />
      <path
         inkscape:connector-curvature="0"
         style="opacity:0.05100002;fill:#ffff89;fill-opacity:1;stroke:none;stroke-width:0.26458332px;stroke-linecap:butt;stroke-linejoin:miter;stroke-opacity:1"
         d="m -511.73104,324.22155 -0.37568,1.43608 27.54148,156.55065 2.74349,-38.41107 -0.77102,2.94762 -28.58378,-120.64122 z m 57.12883,22.7893 30.51286,170.72705 181.42871,-6.8032 10.58334,-12.85142 46.11294,-13.60691 -0.66301,-2.19316 -0.093,-0.0522 -16.41347,4.16822 -0.20051,-7.43056 -3.6375,8.05119 0.23565,-19.81067 -3.13057,20.87882 -1.76371,-10.54922 -1.03198,10.62312 -2.66909,-20.1409 -0.29972,18.6464 -4.56975,-10.24485 1.63763,11.51353 -4.43332,-8.40777 2.0531,11.39415 -13.40176,3.40341 -12.01787,14.42186 a 863.81502,157.15445 0 0 0 -10.2154,-0.0698 863.81502,157.15445 0 0 0 -46.74907,0.45527 l -0.27699,-10.28671 -4.6695,10.33476 a 863.81502,157.15445 0 0 0 -0.74621,0.007 l 0.33176,-27.91508 -4.19094,27.95231 a 863.81502,157.15445 0 0 0 -1.02889,0.0103 l -2.09391,-12.52636 -1.2201,12.5584 a 863.81502,157.15445 0 0 0 -0.76068,0.008 l -3.55015,-26.78906 -0.43151,26.82782 a 863.81502,157.15445 0 0 0 -0.47696,0.005 l -6.3686,-14.27769 2.03708,14.31955 a 863.81502,157.15445 0 0 0 -1.10588,0.0108 l -5.10823,-9.6888 1.75183,9.72137 a 863.81502,157.15445 0 0 0 -3.33674,0.0331 l 0.18603,-19.92075 -5.24669,19.96932 a 863.81502,157.15445 0 0 0 -1.01701,0.0103 l -0.95858,-8.95448 -2.08153,8.99946 a 863.81502,157.15445 0 0 0 -1.70379,0.0455 l -1.92494,-11.51557 -1.12602,11.59722 a 863.81502,157.15445 0 0 0 -0.97875,0.0265 l -3.42563,-25.84646 -0.41704,25.9493 a 863.81502,157.15445 0 0 0 -0.87487,0.0233 l -5.98517,-13.41779 1.92339,13.52632 a 863.81502,157.15445 0 0 0 -1.39681,0.0372 l -4.70411,-8.92194 1.62264,9.00462 a 863.81502,157.15445 0 0 0 -52.77403,1.41128 c -0.27215,-1.21935 -0.60847,-2.38905 -1.01132,-3.49488 z m -97.05869,40.47609 -0.0889,0.33952 8.22015,74.72722 2.2996,-32.77526 -9.15032,-38.61988 z m -47.05345,1.73943 18.89911,120.19629 1.36218,-35.43247 -17.34621,-73.21053 z m -40.82129,40.82129 14.36296,81.64306 v -24.03935 l -11.89231,-50.19228 z"
         id="path5717" />
      <path
         inkscape:connector-curvature="0"
         style="opacity:0.07900002;fill:#ffff81;fill-opacity:1;stroke:none;stroke-width:0.26458332px;stroke-linecap:butt;stroke-linejoin:miter;stroke-opacity:1"
         d="m 191.41209,346.13133 -0.0264,0.0997 0.36018,1.30847 z m -1.49087,5.69991 -33.68166,128.7575 1.75441,3.50935 2.26808,2.64583 z m 52.40765,37.14708 -20.78632,79.46234 0.32969,4.69635 3.77962,1.13377 16.88372,-84.42015 z m -106.15114,7.34012 -26.56478,101.55143 v 7.77316 l 4.15788,6.42546 23.2575,-112.1601 z m -48.551554,10.12754 -28.628226,109.44034 -0.185521,-6.88379 -4.703588,10.41124 a 863.81502,157.15445 0 0 0 -0.712102,-0.0429 l 0.33228,-27.94199 -4.155303,27.71151 a 863.81502,157.15445 0 0 0 -1.118277,-0.0682 l -2.040702,-12.206 -1.166336,12.01272 a 863.81502,157.15445 0 0 0 -0.894003,-0.0548 l -3.470072,-26.18137 -0.417028,25.94674 a 863.81502,157.15445 0 0 0 -0.911056,-0.0553 l -5.948992,-13.33667 1.861902,13.08965 a 863.81502,157.15445 0 0 0 -1.637109,-0.0987 l -3.345532,-6.34588 -0.0047,-0.16743 -0.03876,0.0858 -1.013375,-1.92235 0.5364,2.97759 -2.259293,5.00176 a 863.81502,157.15445 0 0 0 -2.588472,-0.15605 l 0.280086,-23.56032 -3.503662,23.36498 a 863.81502,157.15445 0 0 0 -2.510441,-0.15142 l -1.300179,-7.77677 -0.743107,7.65326 a 863.81502,157.15445 0 0 0 -1.903243,-0.11522 L 12.55375,495.3155 12.207001,516.8811 a 863.81502,157.15445 0 0 0 -2.9915483,-0.18034 l -3.9387777,-8.83047 1.2329999,8.66664 a 863.81502,157.15445 0 0 0 -3.3961752,-0.20515 l -2.0143473,-3.82043 0.6738607,3.7393 a 863.81502,157.15445 0 0 0 -23.2326901,-1.1126 l 17.301786,1.46606 65.768077,5.66994 26.458333,-113.39306 1.654681,6.41562 z m -57.017192,109.9354 0.293523,1.62989 a 863.81502,157.15445 0 0 0 -0.250115,-0.0151 z"
         id="path5719" />
      <path
         inkscape:connector-curvature="0"
         style="opacity:0.06799999;fill:#ffff79;fill-opacity:1;stroke:none;stroke-width:0.26458332px;stroke-linecap:butt;stroke-linejoin:miter;stroke-opacity:1"
         d="m -127.9555,427.89533 -0.0372,0.0217 2.93212,5.46582 -6.87142,6.10817 -26.72705,12.82917 -5.0307,11.31972 6.53552,-10.15339 c 0,0 9.75527,-4.94479 10.28981,-5.21208 0.53454,-0.26725 15.63522,-6.68176 15.63522,-6.68176 l 6.81509,-5.3454 0.2005,-3.07319 z"
         id="path5721" />
      <path
         inkscape:connector-curvature="0"
         style="opacity:0.21199999;fill:#ffff81;fill-opacity:1;stroke:none;stroke-width:0.26458332px;stroke-linecap:butt;stroke-linejoin:miter;stroke-opacity:1"
         d="m -81.194009,318.33198 0.306959,1.53583 3.024102,4.91339 6.236314,3.96875 8.693526,32.8228 -7.374229,-33.9235 -8.859922,-6.64509 0.189135,-1.42004 z m 18.508948,44.17766 0.318844,1.20304 -0.143661,-0.96428 z"
         id="path5723" />
      <path
         inkscape:connector-curvature="0"
         style="opacity:0.05499998;fill:#ffff54;fill-opacity:1;stroke:none;stroke-width:0.26458332px;stroke-linecap:butt;stroke-linejoin:miter;stroke-opacity:1"
         d="m 11.371916,394.08189 -11.46183299,63.53564 c 0,0 -0.08812026,4.81513 1.26142169,6.60477 0.921586,1.22211 2.9852658,2.2525 4.7981567,2.97294 l -3.637504,0.70178 0.874882,1.22473 6.1474283,-0.53486 -0.5343342,-5.07822 -4.2767416,-9.62166 z m -18.1968224,12.20235 -2.6050088,11.69747 -7.7096068,46.45506 c 0,0 -0.0074,0.67225 0.05736,1.5358 l -2.428276,2.20763 v 1.45315 l 0.07493,-0.32814 2.378149,-3.02514 c 0.103861,1.11945 0.337779,2.46068 0.876433,3.175 0.280649,0.37214 0.704275,0.71943 1.195792,1.0392 h -4.525305 v 1.03249 h 3.207039 l 4.81056,1.87121 -0.534335,-4.27622 -1.069185,-6.14744 6.3717039,-55.81726 z m 59.3359134,34.61081 -4.67155,17.85884 -5.846156,0.99994 0.05116,0.47956 -0.448035,0.0863 c -0.004,0.0116 -0.07803,0.22532 -0.07803,0.22532 l -10.306865,1.8035 -2.346626,2.49648 20.045288,-3.20704 2.13837,-2.93987 2.089796,-14.6296 z m -53.03603955,20.13728 -0.27698567,2.47634 0.66972655,0.93739 z"
         id="path5725" />
      <circle
         r="2.8561201"
         cy="-86.893227"
         cx="-133.127"
         id="circle5727"
         style="opacity:0.90200046;fill:#ffffff;fill-opacity:1;stroke:none;stroke-width:0.97148103;stroke-miterlimit:4;stroke-dasharray:none;stroke-opacity:1;paint-order:markers stroke fill" />
      <circle
         style="opacity:0.90200046;fill:#ffffff;fill-opacity:1;stroke:none;stroke-width:0.97148103;stroke-miterlimit:4;stroke-dasharray:none;stroke-opacity:1;paint-order:markers stroke fill"
         id="circle5729"
         cx="-251.05557"
         cy="34.059155"
         r="2.8561201" />
      <path
         sodipodi:nodetypes="cccccccccccccc"
         inkscape:connector-curvature="0"
         id="path5731"
         d="m 284.62743,17.988016 c -11.33189,0.0044 -20.84322,8.539383 -22.07014,19.804648 -2.89804,-3.829413 -7.42123,-6.08188 -12.22363,-6.087146 -6.34852,0.0075 -12.03746,3.922174 -14.31274,9.848966 -1.38791,-0.462662 -2.84091,-0.700319 -4.30391,-0.703961 -7.08936,0.0026 -13.00871,5.407147 -13.65499,12.466988 -0.34581,-0.03539 -0.6939,-0.05401 -1.04243,-0.05582 -4.87027,1.3e-5 -8.81839,3.217025 -8.81837,7.185394 0.003,0.662951 0.11794,1.322411 0.3425,1.959611 l 133.43618,1.123812 c 1.68425,-16.659045 -18.19063,-22.674973 -22.40566,-22.679989 -1.37668,0.0054 -2.74339,0.233932 -4.04693,0.67672 -1.33124,-5.29373 -5.48664,-9.413626 -10.7916,-10.699386 -3.63979,-7.822414 -11.48053,-12.828997 -20.10828,-12.839841 z"
         style="opacity:0.753;fill:url(#linearGradient5941);fill-opacity:1;stroke:none;stroke-width:0.41972589;stroke-miterlimit:4;stroke-dasharray:none;stroke-opacity:1;paint-order:markers stroke fill" />
      <path
         style="opacity:0.28399999;fill:#ffffff;fill-opacity:1;stroke:none;stroke-width:0.57737029;stroke-miterlimit:4;stroke-dasharray:none;stroke-opacity:1;paint-order:markers stroke fill"
         d="m -15.510482,-182.71899 c -15.588011,0.006 -28.671696,11.74668 -30.359439,27.24306 -3.986512,-5.2677 -10.208557,-8.36617 -16.814682,-8.37341 -8.732954,0.0103 -16.558593,5.39529 -19.688446,13.54812 -1.909205,-0.63643 -3.907932,-0.96335 -5.920417,-0.96836 -9.752042,0.004 -17.894634,7.43802 -18.783654,17.14946 -0.4757,-0.0487 -0.95452,-0.0743 -1.43395,-0.0768 -6.69949,2e-5 -12.13048,4.4253 -12.13045,9.88415 0.004,0.91194 0.16223,1.81909 0.47113,2.69562 l 183.553307,1.5459 c 2.316878,-22.916 -25.022804,-31.19144 -30.820945,-31.19835 -1.893752,0.007 -3.773781,0.3218 -5.56692,0.93089 -1.83123,-7.28199 -7.547361,-12.94928 -14.844798,-14.71796 -5.0068576,-10.76042 -15.7924934,-17.64742 -27.660736,-17.66234 z"
         id="path5733"
         inkscape:connector-curvature="0"
         sodipodi:nodetypes="cccccccccccccc" />
      <circle
         style="opacity:0.90200046;fill:#ffffff;fill-opacity:1;stroke:none;stroke-width:0.5857864;stroke-miterlimit:4;stroke-dasharray:none;stroke-opacity:1;paint-order:markers stroke fill"
         id="circle5735"
         cx="-92.683548"
         cy="-24.905132"
         r="1.7221916" />
      <circle
         style="opacity:0.90200046;fill:#ffffff;fill-opacity:1;stroke:none;stroke-width:0.97148103;stroke-miterlimit:4;stroke-dasharray:none;stroke-opacity:1;paint-order:markers stroke fill"
         id="circle5737"
         cx="-514.12701"
         cy="-8.2741795"
         r="2.8561201" />
      <circle
         r="2.8561201"
         cy="112.6782"
         cx="-632.05554"
         id="circle5739"
         style="opacity:0.90200046;fill:#ffffff;fill-opacity:1;stroke:none;stroke-width:0.97148103;stroke-miterlimit:4;stroke-dasharray:none;stroke-opacity:1;paint-order:markers stroke fill" />
      <circle
         r="1.7221916"
         cy="53.713917"
         cx="-473.68353"
         id="circle5741"
         style="opacity:0.90200046;fill:#ffffff;fill-opacity:1;stroke:none;stroke-width:0.5857864;stroke-miterlimit:4;stroke-dasharray:none;stroke-opacity:1;paint-order:markers stroke fill" />
      <circle
         style="opacity:0.90200046;fill:#ffffff;fill-opacity:1;stroke:none;stroke-width:0.5857864;stroke-miterlimit:4;stroke-dasharray:none;stroke-opacity:1;paint-order:markers stroke fill"
         id="circle5743"
         cx="-248.40973"
         cy="186.76154"
         r="1.7221916" />
      <circle
         style="opacity:0.90200046;fill:#ffffff;fill-opacity:1;stroke:none;stroke-width:0.97148103;stroke-miterlimit:4;stroke-dasharray:none;stroke-opacity:1;paint-order:markers stroke fill"
         id="circle5745"
         cx="-156.01682"
         cy="13.600116"
         r="2.8561201"
         transform="scale(-1,1)" />
      <circle
         r="2.8561201"
         cy="134.55249"
         cx="-273.94537"
         id="circle5747"
         style="opacity:0.90200046;fill:#ffffff;fill-opacity:1;stroke:none;stroke-width:0.97148103;stroke-miterlimit:4;stroke-dasharray:none;stroke-opacity:1;paint-order:markers stroke fill"
         transform="scale(-1,1)" />
      <circle
         r="1.7221916"
         cy="75.588211"
         cx="-115.57337"
         id="circle5749"
         style="opacity:0.90200046;fill:#ffffff;fill-opacity:1;stroke:none;stroke-width:0.5857864;stroke-miterlimit:4;stroke-dasharray:none;stroke-opacity:1;paint-order:markers stroke fill"
         transform="scale(-1,1)" />
      <circle
         transform="scale(-1,1)"
         r="2.8561201"
         cy="90.573738"
         cx="517.50238"
         id="circle5751"
         style="opacity:0.90200046;fill:#ffffff;fill-opacity:1;stroke:none;stroke-width:0.97148103;stroke-miterlimit:4;stroke-dasharray:none;stroke-opacity:1;paint-order:markers stroke fill" />
      <circle
         transform="scale(-1,1)"
         style="opacity:0.90200046;fill:#ffffff;fill-opacity:1;stroke:none;stroke-width:0.5857864;stroke-miterlimit:4;stroke-dasharray:none;stroke-opacity:1;paint-order:markers stroke fill"
         id="circle5753"
         cx="557.94586"
         cy="152.56183"
         r="1.7221916" />
      <circle
         style="opacity:0.90200046;fill:#ffffff;fill-opacity:1;stroke:none;stroke-width:0.97148103;stroke-miterlimit:4;stroke-dasharray:none;stroke-opacity:1;paint-order:markers stroke fill"
         id="circle5755"
         cx="-0.56131339"
         cy="124.78424"
         r="2.8561201" />
      <circle
         r="1.7221916"
         cy="186.77234"
         cx="39.882137"
         id="circle5757"
         style="opacity:0.90200046;fill:#ffffff;fill-opacity:1;stroke:none;stroke-width:0.5857864;stroke-miterlimit:4;stroke-dasharray:none;stroke-opacity:1;paint-order:markers stroke fill" />
      <circle
         style="opacity:0.90200046;fill:#ffffff;fill-opacity:1;stroke:none;stroke-width:0.97148103;stroke-miterlimit:4;stroke-dasharray:none;stroke-opacity:1;paint-order:markers stroke fill"
         id="circle5759"
         cx="-310.59396"
         cy="-110.41295"
         r="2.8561201" />
      <circle
         r="2.8561201"
         cy="-127.5182"
         cx="124.52083"
         id="circle5761"
         style="opacity:0.90200046;fill:#ffffff;fill-opacity:1;stroke:none;stroke-width:0.97148103;stroke-miterlimit:4;stroke-dasharray:none;stroke-opacity:1;paint-order:markers stroke fill" />
      <path
         style="opacity:0.90200046;fill:url(#linearGradient5943);fill-opacity:1;stroke:none;stroke-width:0.70158213;stroke-miterlimit:4;stroke-dasharray:none;stroke-opacity:1;paint-order:markers stroke fill"
         d="m -435.97537,96.775424 c -18.94153,0.0069 -34.83995,14.273806 -36.89078,33.103966 -4.84415,-6.40095 -12.40477,-10.16602 -20.4321,-10.17482 -10.61171,0.0134 -20.1209,6.55602 -23.92408,16.46278 -2.31994,-0.77333 -4.74865,-1.17059 -7.1941,-1.17666 -11.85004,0.005 -21.74438,9.03816 -22.82464,20.83886 -0.57804,-0.0592 -1.15988,-0.0902 -1.74246,-0.0932 -8.14077,2e-5 -14.74015,5.37734 -14.74012,12.01055 0.005,1.10814 0.19714,2.21044 0.5725,3.27554 l 223.04184,1.87849 c 2.81527,-27.846 -30.40609,-37.90178 -37.45162,-37.91015 -2.30114,0.008 -4.58564,0.39102 -6.76454,1.13116 -2.22519,-8.84861 -9.17104,-15.73512 -18.03842,-17.8843 -6.08399,-13.07535 -19.18998,-21.443981 -33.61148,-21.462122 z"
         id="path5763"
         inkscape:connector-curvature="0"
         sodipodi:nodetypes="cccccccccccccc" />
      <path
         sodipodi:nodetypes="cccccccccccccc"
         inkscape:connector-curvature="0"
         id="path5765"
         d="m -150.16395,7.8051564 c -7.88704,0.00289 -14.50696,5.9434486 -15.3609,13.7841096 -2.01705,-2.66528 -5.1652,-4.233013 -8.50769,-4.236677 -4.41859,0.0056 -8.37812,2.729851 -9.96172,6.854916 -0.96599,-0.322012 -1.97728,-0.487425 -2.99554,-0.489955 -4.93422,0.0019 -9.05411,3.763396 -9.50392,8.677069 -0.24069,-0.02462 -0.48296,-0.03756 -0.72554,-0.03881 -3.38972,5e-6 -6.13763,2.239058 -6.13762,5.001055 0.002,0.461417 0.0821,0.920404 0.23839,1.363896 l 92.87207,0.782178 c 1.17225,-11.594755 -12.66075,-15.781862 -15.59442,-15.785349 -0.95817,0.0034 -1.90941,0.162812 -2.81668,0.470997 -0.92655,-3.684454 -3.81872,-6.551921 -7.51099,-7.446816 -2.53331,-5.444427 -7.9905,-8.9290282 -13.99544,-8.9365789 z"
         style="opacity:0.48600003;fill:#ffffff;fill-opacity:1;stroke:none;stroke-width:0.29213077;stroke-miterlimit:4;stroke-dasharray:none;stroke-opacity:1;paint-order:markers stroke fill" />
      <path
         sodipodi:nodetypes="cccccccccccccc"
         inkscape:connector-curvature="0"
         id="path5767"
         d="m 160.58016,202.37737 c -16.39929,0.006 -30.1639,12.35804 -31.93947,28.6609 -4.19399,-5.54184 -10.73986,-8.80158 -17.6898,-8.8092 -9.18745,0.0116 -17.420369,5.6761 -20.713109,14.25323 -2.00856,-0.66955 -4.11131,-1.01349 -6.22854,-1.01875 -10.25958,0.004 -18.82595,7.82512 -19.76123,18.04198 -0.50045,-0.0512 -1.0042,-0.0781 -1.50859,-0.0807 -7.04815,1e-5 -12.7618,4.65561 -12.76177,10.39855 0.004,0.95941 0.17068,1.91377 0.49566,2.83591 l 193.106219,1.62636 c 2.43742,-24.10864 -26.32512,-32.81477 -32.42503,-32.82202 -1.9923,0.007 -3.97018,0.33853 -5.85664,0.97933 -1.92654,-7.66098 -7.94015,-13.62322 -15.61739,-15.48395 -5.26743,-11.32044 -16.6144,-18.56587 -29.10031,-18.58157 z"
         style="opacity:0.90200046;fill:url(#linearGradient5945);fill-opacity:1;stroke:none;stroke-width:0.60741907;stroke-miterlimit:4;stroke-dasharray:none;stroke-opacity:1;paint-order:markers stroke fill" />
      <circle
         r="95.129509"
         cy="114.01689"
         cx="228.34837"
         id="circle5769"
         style="opacity:0.07191778;fill:url(#linearGradient5947);fill-opacity:1;stroke:none;stroke-width:1.71120679;stroke-miterlimit:4;stroke-dasharray:none;stroke-opacity:1;paint-order:markers stroke fill"
         transform="rotate(90)" />
      <circle
         style="opacity:0.03399999;fill:url(#linearGradient5949);fill-opacity:1;stroke:none;stroke-width:2.30952811;stroke-miterlimit:4;stroke-dasharray:none;stroke-opacity:1;paint-order:markers stroke fill"
         id="circle5771"
         cx="228.34837"
         cy="114.01689"
         r="128.39142"
         transform="rotate(90)" />
      <circle
         r="173.74857"
         cy="114.01689"
         cx="228.34837"
         id="circle5773"
         style="opacity:0.03399999;fill:url(#linearGradient5951);fill-opacity:1;stroke:none;stroke-width:3.12542057;stroke-miterlimit:4;stroke-dasharray:none;stroke-opacity:1;paint-order:markers stroke fill"
         transform="rotate(90)" />
      <circle
         style="opacity:0.05100002;fill:url(#linearGradient5953);fill-opacity:1;stroke:none;stroke-width:4.10449171;stroke-miterlimit:4;stroke-dasharray:none;stroke-opacity:1;paint-order:markers stroke fill"
         id="circle5775"
         cx="-114.01689"
         cy="228.34837"
         r="228.17714" />
      <circle
         r="297.72476"
         cy="228.34837"
         cx="-114.01689"
         id="circle5777"
         style="opacity:0.04500002;fill:url(#linearGradient5955);fill-opacity:1;stroke:none;stroke-width:5.35552692;stroke-miterlimit:4;stroke-dasharray:none;stroke-opacity:1;paint-order:markers stroke fill" />
      <circle
         style="opacity:0.03800001;fill:url(#linearGradient5957);fill-opacity:1;stroke:none;stroke-width:6.68815136;stroke-miterlimit:4;stroke-dasharray:none;stroke-opacity:1;paint-order:markers stroke fill"
         id="circle5779"
         cx="-114.01689"
         cy="228.34837"
         r="371.80811" />
      <circle
         r="485.20096"
         cy="228.34837"
         cx="-114.01689"
         id="circle5781"
         style="opacity:0.02399998;fill:url(#linearGradient5959);fill-opacity:1;stroke:none;stroke-width:8.72788239;stroke-miterlimit:4;stroke-dasharray:none;stroke-opacity:1;paint-order:markers stroke fill" />
      <circle
         r="2.8561201"
         cy="-191.66289"
         cx="-396.12021"
         id="circle5783"
         style="opacity:0.90200046;fill:#ffffff;fill-opacity:1;stroke:none;stroke-width:0.97148103;stroke-miterlimit:4;stroke-dasharray:none;stroke-opacity:1;paint-order:markers stroke fill" />
    </g>
    <path
       style="opacity:1;fill:url(#linearGradient5675);fill-opacity:1;stroke:none;stroke-width:0.23334688;stroke-miterlimit:4;stroke-dasharray:none;stroke-opacity:1;paint-order:markers stroke fill"
       d="m 7.325653,73.649005 c -6.2999686,0.0027 -11.5877854,4.747482 -12.2698792,11.01041 -1.6111931,-2.128955 -4.125854,-3.381224 -6.7957388,-3.384147 -3.529493,0.0041 -6.692225,2.180529 -7.957175,5.475534 -0.771642,-0.25721 -1.579431,-0.389347 -2.392768,-0.391363 -3.941358,0.0014 -7.232208,3.0061 -7.591524,6.931029 -0.192237,-0.01976 -0.385747,-0.03004 -0.579513,-0.03099 -2.707643,1.4e-5 -4.902612,1.788504 -4.902571,3.994719 0.0027,0.368573 0.0655,0.735197 0.19041,1.089452 L 39.21081,98.96843 C 40.147176,89.70683 29.097709,86.362267 26.754364,86.359479 25.988987,86.362186 25.22916,86.489532 24.50445,86.735712 23.764354,83.792648 21.454178,81.50219 18.504862,80.787373 16.481329,76.438496 12.12226,73.655082 7.325653,73.649046 Z"
       id="path5673"
       inkscape:connector-curvature="0"
       sodipodi:nodetypes="cccccccccccccc" />
    <path
       sodipodi:nodetypes="cccccccccccccc"
       inkscape:connector-curvature="0"
       id="path5677"
       d="m 0.38535368,133.15904 c -5.92756568,0.001 -10.90282268,4.46686 -11.54460168,10.35958 -1.515947,-2.00311 -3.881974,-3.18137 -6.394037,-3.18412 -3.320866,0.004 -6.296653,2.05164 -7.486818,5.15188 -0.726023,-0.24201 -1.486067,-0.36633 -2.251335,-0.36823 -3.708372,10e-4 -6.804698,2.82841 -7.142781,6.52132 -0.18087,-0.0185 -0.362943,-0.0283 -0.545261,-0.0292 -2.547587,0 -4.612814,1.68279 -4.612774,3.7586 0.0027,0.34678 0.06171,0.69173 0.179151,1.02505 l 69.798849,0.58784 c 0.88103,-8.71414 -9.515304,-11.861 -11.720125,-11.86361 -0.720135,0.003 -1.435047,0.12234 -2.116924,0.35397 -0.696358,-2.76908 -2.869972,-4.92414 -5.644941,-5.59672 -1.9039269,-4.09181 -6.0053402,-6.7107 -10.51840232,-6.71637 z"
       style="opacity:1;fill:url(#linearGradient5679);fill-opacity:1;stroke:none;stroke-width:0.21955357;stroke-miterlimit:4;stroke-dasharray:none;stroke-opacity:1;paint-order:markers stroke fill" />
    <path
       style="opacity:1;fill:url(#linearGradient5683);fill-opacity:1;stroke:none;stroke-width:0.17127703;stroke-miterlimit:4;stroke-dasharray:none;stroke-opacity:1;paint-order:markers stroke fill"
       d="m 212.68193,111.8318 c 4.62419,0.001 8.50546,3.48466 9.00611,8.08165 1.18262,-1.56266 3.02839,-2.48183 4.98809,-2.48396 2.59066,0.003 4.91211,1.60051 5.84059,4.01905 0.56637,-0.1888 1.1593,-0.28578 1.75629,-0.28726 2.89295,10e-4 5.30846,2.20648 5.57219,5.08738 0.14111,-0.0145 0.28314,-0.0221 0.42537,-0.0227 1.9874,0 3.59851,1.31276 3.5985,2.93213 -0.003,0.27052 -0.0482,0.53963 -0.13977,0.79965 l -54.45112,0.4586 c -0.6873,-6.79804 7.42303,-9.25296 9.14304,-9.255 0.5618,0.001 1.11951,0.0954 1.65144,0.27616 0.54324,-2.16022 2.23891,-3.84142 4.40371,-4.3661 1.48529,-3.19208 4.68486,-5.23512 8.20556,-5.23954 z"
       id="path5681"
       inkscape:connector-curvature="0"
       sodipodi:nodetypes="cccccccccccccc" />
  </g>
</svg>
